<svg width="26" height="22" viewBox="0 0 26 22" fill="none" xmlns="http://www.w3.org/2000/svg">
<path d="M21.75 4.12503H20.15L19.75 2.87503C19.4907 2.14157 19.0097 1.50691 18.3736 1.05898C17.7376 0.611051 16.9779 0.372029 16.2 0.375028H9.8C9.01443 0.376498 8.24917 0.624632 7.61221 1.08441C6.97525 1.54419 6.49876 2.19239 6.25 2.93753L5.85 4.18753H4.25C3.25544 4.18753 2.30161 4.58262 1.59835 5.28588C0.895088 5.98914 0.5 6.94297 0.5 7.93753V17.9375C0.5 18.9321 0.895088 19.8859 1.59835 20.5892C2.30161 21.2924 3.25544 21.6875 4.25 21.6875H21.75C22.7446 21.6875 23.6984 21.2924 24.4017 20.5892C25.1049 19.8859 25.5 18.9321 25.5 17.9375V7.93753C25.5083 7.43984 25.4174 6.94547 25.2327 6.48326C25.048 6.02105 24.773 5.60025 24.424 5.24538C24.0749 4.89052 23.6587 4.60869 23.1996 4.41634C22.7406 4.22399 22.2478 4.12496 21.75 4.12503ZM23 17.875C23 18.2065 22.8683 18.5245 22.6339 18.7589C22.3995 18.9933 22.0815 19.125 21.75 19.125H4.25C3.91848 19.125 3.60054 18.9933 3.36612 18.7589C3.1317 18.5245 3 18.2065 3 17.875V7.87503C3 7.54351 3.1317 7.22557 3.36612 6.99114C3.60054 6.75672 3.91848 6.62503 4.25 6.62503H6.75C7.02258 6.63926 7.29233 6.56387 7.51804 6.41039C7.74376 6.2569 7.91303 6.03375 8 5.77503L8.675 3.72503C8.75886 3.47675 8.91862 3.26111 9.13171 3.10858C9.3448 2.95605 9.60044 2.87435 9.8625 2.87503H16.2625C16.5246 2.87435 16.7802 2.95605 16.9933 3.10858C17.2064 3.26111 17.3661 3.47675 17.45 3.72503L18.125 5.77503C18.2052 6.01346 18.3555 6.22214 18.5562 6.37379C18.7569 6.52544 18.9987 6.613 19.25 6.62503H21.75C22.0815 6.62503 22.3995 6.75672 22.6339 6.99114C22.8683 7.22557 23 7.54351 23 7.87503V17.875ZM13 6.62503C12.0111 6.62503 11.0444 6.91827 10.2221 7.46768C9.3999 8.01709 8.75904 8.79798 8.3806 9.71161C8.00216 10.6252 7.90315 11.6306 8.09607 12.6005C8.289 13.5704 8.7652 14.4613 9.46447 15.1606C10.1637 15.8598 11.0546 16.336 12.0245 16.529C12.9945 16.7219 13.9998 16.6229 14.9134 16.2444C15.827 15.866 16.6079 15.2251 17.1573 14.4029C17.7068 13.5806 18 12.6139 18 11.625C18 10.2989 17.4732 9.02718 16.5355 8.08949C15.5979 7.15181 14.3261 6.62503 13 6.62503ZM13 14.125C12.5055 14.125 12.0222 13.9784 11.6111 13.7037C11.2 13.429 10.8795 13.0386 10.6903 12.5817C10.5011 12.1249 10.4516 11.6223 10.548 11.1373C10.6445 10.6523 10.8826 10.2069 11.2322 9.85726C11.5819 9.50763 12.0273 9.26953 12.5123 9.17306C12.9972 9.0766 13.4999 9.12611 13.9567 9.31533C14.4135 9.50455 14.804 9.82498 15.0787 10.2361C15.3534 10.6472 15.5 11.1306 15.5 11.625C15.5 12.2881 15.2366 12.924 14.7678 13.3928C14.2989 13.8616 13.663 14.125 13 14.125Z" fill="black"/>
</svg>
