<svg width="20" height="19" viewBox="0 0 20 19" fill="none" xmlns="http://www.w3.org/2000/svg">
<path d="M4.83567 10.5332C4.71418 10.5772 4.60384 10.6473 4.51248 10.7387C4.42111 10.83 4.35096 10.9404 4.30699 11.0619C4.23577 11.2398 4.21834 11.4347 4.25685 11.6224C4.29536 11.8102 4.38812 11.9825 4.52363 12.118C4.65915 12.2535 4.83145 12.3463 5.01918 12.3848C5.20692 12.4233 5.40183 12.4058 5.57975 12.3346C5.69839 12.285 5.80767 12.2155 5.90283 12.129C5.98931 12.0339 6.05885 11.9246 6.10843 11.8059C6.16324 11.6898 6.19006 11.5623 6.18675 11.4339C6.18315 11.1747 6.08173 10.9264 5.90283 10.7388C5.76515 10.6029 5.59032 10.5109 5.4004 10.4743C5.21047 10.4377 5.01397 10.4582 4.83567 10.5332ZM17.7003 6.61702L16.3688 2.67148C16.1657 2.09701 15.7889 1.59993 15.2908 1.24909C14.7926 0.898262 14.1976 0.711052 13.5883 0.713401H6.61753C6.00822 0.711052 5.41325 0.898262 4.91507 1.24909C4.41689 1.59993 4.04015 2.09701 3.83705 2.67148L2.50555 6.64639C1.87929 6.81039 1.32475 7.17671 0.92815 7.68839C0.531553 8.20007 0.315121 8.82845 0.3125 9.47583V13.392C0.314203 13.998 0.503294 14.5886 0.85385 15.0829C1.20441 15.5771 1.69926 15.9509 2.27058 16.1529V17.3082C2.27058 17.5678 2.37373 17.8168 2.55734 18.0004C2.74094 18.1841 2.98997 18.2872 3.24963 18.2872C3.50928 18.2872 3.75831 18.1841 3.94191 18.0004C4.12552 17.8168 4.22867 17.5678 4.22867 17.3082V16.3291H15.9772V17.3082C15.9772 17.5678 16.0803 17.8168 16.2639 18.0004C16.4475 18.1841 16.6966 18.2872 16.9562 18.2872C17.2159 18.2872 17.4649 18.1841 17.6485 18.0004C17.8321 17.8168 17.9353 17.5678 17.9353 17.3082V16.1529C18.5066 15.9509 19.0014 15.5771 19.352 15.0829C19.7025 14.5886 19.8916 13.998 19.8933 13.392V9.47583C19.8907 8.82845 19.6743 8.20007 19.2777 7.68839C18.8811 7.17671 18.3266 6.81039 17.7003 6.64639V6.61702ZM5.68744 3.28828C5.75312 3.09382 5.87825 2.92492 6.04515 2.80546C6.21205 2.68599 6.41228 2.622 6.61753 2.62253H13.5883C13.8018 2.61139 14.0131 2.67043 14.1899 2.79065C14.3667 2.91086 14.4992 3.08564 14.5674 3.28828L15.5953 6.5387H4.61049L5.68744 3.28828ZM17.9353 13.392C17.9353 13.6517 17.8321 13.9007 17.6485 14.0843C17.4649 14.2679 17.2159 14.371 16.9562 14.371H3.24963C2.98997 14.371 2.74094 14.2679 2.55734 14.0843C2.37373 13.9007 2.27058 13.6517 2.27058 13.392V9.47583C2.27058 9.21617 2.37373 8.96714 2.55734 8.78354C2.74094 8.59993 2.98997 8.49678 3.24963 8.49678H16.9562C17.2159 8.49678 17.4649 8.59993 17.6485 8.78354C17.8321 8.96714 17.9353 9.21617 17.9353 9.47583V13.392ZM14.6261 10.5332C14.5046 10.5772 14.3943 10.6473 14.3029 10.7387C14.2115 10.83 14.1414 10.9404 14.0974 11.0619C14.0262 11.2398 14.0088 11.4347 14.0473 11.6224C14.0858 11.8102 14.1785 11.9825 14.3141 12.118C14.4496 12.2535 14.6219 12.3463 14.8096 12.3848C14.9973 12.4233 15.1922 12.4058 15.3702 12.3346C15.4917 12.2907 15.602 12.2205 15.6934 12.1291C15.7847 12.0378 15.8549 11.9274 15.8988 11.8059C15.9537 11.6898 15.9805 11.5623 15.9772 11.4339C15.9736 11.1747 15.8722 10.9264 15.6932 10.7388C15.5556 10.6029 15.3807 10.5109 15.1908 10.4743C15.0009 10.4377 14.8044 10.4582 14.6261 10.5332ZM11.082 10.4549H9.12388C8.86422 10.4549 8.6152 10.558 8.43159 10.7416C8.24798 10.9252 8.14484 11.1743 8.14484 11.4339C8.14484 11.6936 8.24798 11.9426 8.43159 12.1262C8.6152 12.3098 8.86422 12.413 9.12388 12.413H11.082C11.3416 12.413 11.5906 12.3098 11.7742 12.1262C11.9579 11.9426 12.061 11.6936 12.061 11.4339C12.061 11.1743 11.9579 10.9252 11.7742 10.7416C11.5906 10.558 11.3416 10.4549 11.082 10.4549Z" fill="#031569"/>
</svg>
