<svg width="21" height="18" viewBox="0 0 21 18" fill="none" xmlns="http://www.w3.org/2000/svg">
<path d="M4.95398 10.0799C4.82989 10.1249 4.71719 10.1965 4.62387 10.2898C4.53055 10.3832 4.4589 10.4959 4.41398 10.6199C4.34124 10.8017 4.32344 11.0008 4.36277 11.1925C4.40211 11.3843 4.49685 11.5603 4.63527 11.6987C4.77368 11.8371 4.94967 11.9318 5.14142 11.9712C5.33318 12.0105 5.53226 11.9927 5.71398 11.9199C5.83517 11.8693 5.94678 11.7983 6.04398 11.7099C6.13232 11.6127 6.20334 11.5011 6.25398 11.3799C6.30997 11.2613 6.33736 11.1311 6.33398 10.9999C6.3303 10.7352 6.22672 10.4816 6.04398 10.2899C5.90336 10.1512 5.72479 10.0572 5.5308 10.0198C5.33681 9.98245 5.1361 10.0034 4.95398 10.0799ZM18.094 6.07995L16.734 2.04995C16.5265 1.46318 16.1417 0.955452 15.6329 0.59711C15.124 0.238767 14.5163 0.0475499 13.894 0.0499491H6.77398C6.15163 0.0475499 5.54393 0.238767 5.03508 0.59711C4.52624 0.955452 4.14143 1.46318 3.93398 2.04995L2.57398 6.10995C1.93431 6.27746 1.3679 6.65161 0.962814 7.17425C0.557727 7.69688 0.336661 8.33871 0.333984 8.99995V12.9999C0.335724 13.6189 0.528863 14.2221 0.886923 14.727C1.24498 15.2319 1.75043 15.6136 2.33398 15.8199V16.9999C2.33398 17.2652 2.43934 17.5195 2.62688 17.7071C2.81441 17.8946 3.06877 17.9999 3.33398 17.9999C3.5992 17.9999 3.85355 17.8946 4.04109 17.7071C4.22863 17.5195 4.33398 17.2652 4.33398 16.9999V15.9999H16.334V16.9999C16.334 17.2652 16.4393 17.5195 16.6269 17.7071C16.8144 17.8946 17.0688 17.9999 17.334 17.9999C17.5992 17.9999 17.8536 17.8946 18.0411 17.7071C18.2286 17.5195 18.334 17.2652 18.334 16.9999V15.8199C18.9175 15.6136 19.423 15.2319 19.781 14.727C20.1391 14.2221 20.3322 13.6189 20.334 12.9999V8.99995C20.3313 8.33871 20.1102 7.69688 19.7052 7.17425C19.3001 6.65161 18.7337 6.27746 18.094 6.10995V6.07995ZM5.82398 2.67995C5.89107 2.48133 6.01888 2.30881 6.18936 2.18679C6.35983 2.06477 6.56434 1.99941 6.77398 1.99995H13.894C14.1121 1.98857 14.3278 2.04888 14.5084 2.17166C14.689 2.29445 14.8244 2.47297 14.894 2.67995L15.944 5.99995H4.72398L5.82398 2.67995ZM18.334 12.9999C18.334 13.2652 18.2286 13.5195 18.0411 13.7071C17.8536 13.8946 17.5992 13.9999 17.334 13.9999H3.33398C3.06877 13.9999 2.81441 13.8946 2.62688 13.7071C2.43934 13.5195 2.33398 13.2652 2.33398 12.9999V8.99995C2.33398 8.73473 2.43934 8.48038 2.62688 8.29284C2.81441 8.10531 3.06877 7.99995 3.33398 7.99995H17.334C17.5992 7.99995 17.8536 8.10531 18.0411 8.29284C18.2286 8.48038 18.334 8.73473 18.334 8.99995V12.9999ZM14.954 10.0799C14.8299 10.1249 14.7172 10.1965 14.6239 10.2898C14.5306 10.3832 14.4589 10.4959 14.414 10.6199C14.3412 10.8017 14.3234 11.0008 14.3628 11.1925C14.4021 11.3843 14.4969 11.5603 14.6353 11.6987C14.7737 11.8371 14.9497 11.9318 15.1414 11.9712C15.3332 12.0105 15.5323 11.9927 15.714 11.9199C15.8381 11.875 15.9508 11.8034 16.0441 11.7101C16.1374 11.6167 16.2091 11.504 16.254 11.3799C16.31 11.2613 16.3374 11.1311 16.334 10.9999C16.3303 10.7352 16.2267 10.4816 16.044 10.2899C15.9034 10.1512 15.7248 10.0572 15.5308 10.0198C15.3368 9.98245 15.1361 10.0034 14.954 10.0799ZM11.334 9.99995H9.33398C9.06877 9.99995 8.81441 10.1053 8.62688 10.2928C8.43934 10.4804 8.33398 10.7347 8.33398 10.9999C8.33398 11.2652 8.43934 11.5195 8.62688 11.7071C8.81441 11.8946 9.06877 11.9999 9.33398 11.9999H11.334C11.5992 11.9999 11.8536 11.8946 12.0411 11.7071C12.2286 11.5195 12.334 11.2652 12.334 10.9999C12.334 10.7347 12.2286 10.4804 12.0411 10.2928C11.8536 10.1053 11.5992 9.99995 11.334 9.99995Z" fill="#A3A3A3"/>
</svg>
