<svg width="18" height="18" viewBox="0 0 18 18" fill="none" xmlns="http://www.w3.org/2000/svg">
<path d="M8.33204 8.51373H8.67926V8.1665V4.83317C8.67926 4.70425 8.73047 4.5806 8.82164 4.48944C8.9128 4.39827 9.03644 4.34706 9.16537 4.34706C9.29429 4.34706 9.41794 4.39827 9.5091 4.48944C9.60026 4.5806 9.65148 4.70425 9.65148 4.83317V8.99984C9.65148 9.12876 9.60026 9.25241 9.5091 9.34357C9.41794 9.43473 9.29429 9.48595 9.16537 9.48595H6.66537C6.53644 9.48595 6.4128 9.43473 6.32164 9.34357C6.23047 9.25241 6.17926 9.12876 6.17926 8.99984C6.17926 8.87091 6.23047 8.74727 6.32164 8.65611C6.4128 8.56494 6.53644 8.51373 6.66537 8.51373H8.33204ZM4.72852 2.35963C6.04183 1.4821 7.58587 1.01373 9.16537 1.01373C10.2141 1.01373 11.2526 1.22029 12.2215 1.62163C13.1904 2.02297 14.0708 2.61122 14.8124 3.3528C15.554 4.09438 16.1422 4.97477 16.5436 5.94368C16.9449 6.9126 17.1515 7.95109 17.1515 8.99984C17.1515 10.5793 16.6831 12.1234 15.8056 13.4367C14.9281 14.75 13.6808 15.7736 12.2215 16.378C10.7622 16.9825 9.15651 17.1406 7.60736 16.8325C6.0582 16.5244 4.63521 15.7637 3.51834 14.6469C2.40146 13.53 1.64085 12.107 1.33271 10.5579C1.02456 9.0087 1.18271 7.40296 1.78716 5.94369C2.39161 4.48441 3.41521 3.23715 4.72852 2.35963ZM5.26866 14.8317C6.42209 15.6024 7.77815 16.0137 9.16537 16.0137C11.0256 16.0137 12.8096 15.2748 14.1249 13.9594C15.4403 12.644 16.1793 10.86 16.1793 8.99984C16.1793 7.61262 15.7679 6.25656 14.9972 5.10313C14.2265 3.9497 13.1311 3.05071 11.8495 2.51985C10.5678 1.98898 9.15759 1.85009 7.79703 2.12072C6.43647 2.39135 5.18671 3.05936 4.2058 4.04027C3.22489 5.02118 2.55688 6.27093 2.28625 7.6315C2.01562 8.99206 2.15452 10.4023 2.68538 11.6839C3.21624 12.9656 4.11523 14.061 5.26866 14.8317Z" fill="#031569" stroke="#747474" stroke-width="0.694444"/>
</svg>
