<svg width="21" height="20" viewBox="0 0 21 20" fill="none" xmlns="http://www.w3.org/2000/svg">
<path d="M13.5 6H7.5C7.23479 6 6.98043 6.10536 6.7929 6.29289C6.60536 6.48043 6.5 6.73478 6.5 7V13C6.5 13.2652 6.60536 13.5196 6.7929 13.7071C6.98043 13.8946 7.23479 14 7.5 14H13.5C13.7652 14 14.0196 13.8946 14.2071 13.7071C14.3946 13.5196 14.5 13.2652 14.5 13V7C14.5 6.73478 14.3946 6.48043 14.2071 6.29289C14.0196 6.10536 13.7652 6 13.5 6ZM12.5 12H8.5V8H12.5V12ZM10.5 0C8.52219 0 6.58879 0.58649 4.9443 1.6853C3.29981 2.78412 2.01809 4.3459 1.26121 6.17317C0.504333 8.00043 0.306299 10.0111 0.692152 11.9509C1.078 13.8907 2.03041 15.6725 3.42894 17.0711C4.82746 18.4696 6.60929 19.422 8.5491 19.8079C10.4889 20.1937 12.4996 19.9957 14.3268 19.2388C16.1541 18.4819 17.7159 17.2002 18.8147 15.5557C19.9135 13.9112 20.5 11.9778 20.5 10C20.5 8.68678 20.2413 7.38642 19.7388 6.17317C19.2363 4.95991 18.4997 3.85752 17.5711 2.92893C16.6425 2.00035 15.5401 1.26375 14.3268 0.761205C13.1136 0.258658 11.8132 0 10.5 0ZM10.5 18C8.91775 18 7.37104 17.5308 6.05544 16.6518C4.73985 15.7727 3.71447 14.5233 3.10897 13.0615C2.50347 11.5997 2.34504 9.99113 2.65372 8.43928C2.9624 6.88743 3.72433 5.46197 4.84315 4.34315C5.96197 3.22433 7.38743 2.4624 8.93928 2.15372C10.4911 1.84504 12.0997 2.00346 13.5615 2.60896C15.0233 3.21447 16.2727 4.23984 17.1518 5.55544C18.0308 6.87103 18.5 8.41775 18.5 10C18.5 12.1217 17.6572 14.1566 16.1569 15.6569C14.6566 17.1571 12.6217 18 10.5 18Z" fill="#FF0000"/>
</svg>
