<svg width="16" height="16" viewBox="0 0 16 16" fill="none" xmlns="http://www.w3.org/2000/svg">
<path d="M15.4998 7.2875C15.4998 7.205 15.4998 7.1225 15.4998 7.04L15.4323 6.59L15.3648 6.2975C15.3648 6.17 15.3048 6.0425 15.2673 5.915C15.2298 5.7875 15.2073 5.7125 15.1698 5.615C15.1489 5.55606 15.1314 5.49596 15.1173 5.435C15.1173 5.435 15.1173 5.435 15.1173 5.3975C14.7376 4.38727 14.1463 3.46985 13.3832 2.70669C12.62 1.94354 11.7026 1.35228 10.6923 0.9725C10.6923 0.9725 10.6923 0.9725 10.6548 0.9725L10.4823 0.92L10.1673 0.8225C10.0548 0.8225 9.93484 0.7625 9.82234 0.7325L9.47734 0.6575L9.13234 0.605C9.01234 0.605 8.89984 0.605 8.77234 0.56C8.64484 0.515 8.50984 0.56 8.38234 0.56L7.99984 0.5H7.70734C7.57984 0.5 7.44484 0.5 7.31734 0.5C7.18984 0.5 7.07734 0.5 6.95734 0.545L6.61234 0.5975L6.26734 0.6725C6.15484 0.6725 6.03484 0.725 5.92234 0.7625L5.60734 0.86L5.43484 0.9125C5.43484 0.9125 5.43484 0.9125 5.39734 0.9125C4.38711 1.29228 3.46969 1.88354 2.70654 2.64669C1.94339 3.40985 1.35212 4.32727 0.972344 5.3375C0.972344 5.3375 0.972344 5.3375 0.972344 5.375C0.958318 5.43596 0.940788 5.49606 0.919844 5.555C0.919844 5.6525 0.852344 5.75 0.822344 5.855C0.792344 5.96 0.754844 6.11 0.724844 6.2375L0.657344 6.53L0.589844 6.98C0.589844 7.0625 0.589844 7.145 0.589844 7.2275C0.589844 7.46 0.589844 7.7 0.589844 7.94C0.589844 8.18 0.589844 8.42 0.589844 8.6525C0.589844 8.735 0.589844 8.8175 0.589844 8.9L0.657344 9.35L0.724844 9.6425C0.724844 9.77 0.784844 9.8975 0.822344 10.025C0.859844 10.1525 0.882344 10.2275 0.919844 10.325C0.940788 10.3839 0.958318 10.444 0.972344 10.505C0.973771 10.5225 0.973771 10.54 0.972344 10.5575C1.34882 11.5667 1.93824 12.4829 2.70051 13.2439C3.46279 14.0049 4.38003 14.5927 5.38984 14.9675C5.38984 14.9675 5.38984 14.9675 5.42734 14.9675L5.60734 15.02L5.90734 15.1175L6.28984 15.215L6.58234 15.2825L7.03234 15.35H7.27984C7.51234 15.35 7.75234 15.3875 7.99234 15.3875C8.23234 15.3875 8.47234 15.3875 8.70484 15.35H8.95234L9.40234 15.2825L9.69484 15.215L10.0773 15.1175L10.3773 15.02L10.5573 14.9675C10.5573 14.9675 10.5573 14.9675 10.5948 14.9675C11.6047 14.5927 12.5219 14.0049 13.2842 13.2439C14.0464 12.4829 14.6359 11.5667 15.0123 10.5575C15.0109 10.54 15.0109 10.5225 15.0123 10.505C15.0123 10.445 15.0498 10.385 15.0648 10.325C15.0798 10.265 15.1323 10.13 15.1623 10.025C15.1923 9.92 15.2298 9.77 15.2598 9.6425L15.3273 9.35L15.3948 8.9C15.3948 8.8175 15.3948 8.735 15.3948 8.6525C15.3948 8.42 15.4323 8.18 15.4323 7.94C15.4323 7.7 15.4998 7.52 15.4998 7.2875ZM10.7748 2.6675C11.8896 3.24024 12.7971 4.1477 13.3698 5.2625L11.2248 6.0125C10.9139 5.51414 10.4932 5.09344 9.99484 4.7825L10.7748 2.6675ZM6.75484 2.1425C6.91234 2.105 7.06234 2.0825 7.21234 2.06H7.39234C7.82117 2.015 8.25352 2.015 8.68234 2.06H8.86234C9.01234 2.06 9.16234 2.105 9.31984 2.1425H9.36484L8.61484 4.2875C8.41142 4.25623 8.20556 4.24368 7.99984 4.25C7.81641 4.24976 7.63328 4.26481 7.45234 4.295L6.70234 2.15L6.75484 2.1425ZM5.29984 2.6675L6.04984 4.8125C5.54876 5.12254 5.12542 5.54331 4.81234 6.0425L2.66734 5.2925C3.23502 4.16656 4.143 3.24808 5.26234 2.6675H5.29984ZM2.14234 9.2825C2.10642 9.13453 2.08136 8.98413 2.06734 8.8325C2.06734 8.765 2.06734 8.705 2.06734 8.645C2.01734 8.21645 2.01734 7.78355 2.06734 7.355C2.06734 7.295 2.06734 7.235 2.06734 7.1675C2.08136 7.01587 2.10642 6.86547 2.14234 6.7175C2.14234 6.7175 2.14234 6.7175 2.14234 6.6725L4.28734 7.4225C4.22733 7.78503 4.22733 8.15497 4.28734 8.5175L2.14234 9.2675C2.14234 9.2675 2.14234 9.2975 2.14234 9.2825ZM5.26234 13.3325C4.14754 12.7598 3.24008 11.8523 2.66734 10.7375L4.81234 9.9875C5.12328 10.4859 5.54399 10.9066 6.04234 11.2175L5.26234 13.3325ZM9.28234 13.8575C9.12484 13.895 8.97484 13.9175 8.82484 13.94H8.64484C8.21602 13.985 7.78367 13.985 7.35484 13.94H7.17484C7.02484 13.94 6.87484 13.895 6.71734 13.8575H6.67234L7.42234 11.7125C7.78488 11.7725 8.15481 11.7725 8.51734 11.7125L9.26734 13.8575H9.28234ZM8.77984 10.1075C8.65234 10.1525 8.52484 10.1825 8.40484 10.2125C8.15698 10.2587 7.90271 10.2587 7.65484 10.2125C7.53484 10.2125 7.40734 10.1525 7.27984 10.1075C6.96329 9.99819 6.67514 9.81959 6.43639 9.58474C6.19765 9.34989 6.01434 9.06471 5.89984 8.75C5.85445 8.62558 5.81933 8.49766 5.79484 8.3675C5.74688 8.1198 5.74688 7.8652 5.79484 7.6175C5.81767 7.49263 5.85027 7.36976 5.89234 7.25C6.00542 6.939 6.1857 6.65676 6.42034 6.42341C6.65499 6.19007 6.93822 6.01135 7.24984 5.9C7.37734 5.855 7.50484 5.825 7.62484 5.795C7.87271 5.74882 8.12698 5.74882 8.37484 5.795C8.49484 5.795 8.62234 5.855 8.74984 5.9C9.06008 6.01228 9.34183 6.19142 9.57513 6.42471C9.80843 6.65801 9.98756 6.93976 10.0998 7.25C10.1452 7.37442 10.1804 7.50234 10.2048 7.6325C10.2528 7.8802 10.2528 8.1348 10.2048 8.3825C10.1804 8.51266 10.1452 8.64058 10.0998 8.765C9.98571 9.07246 9.80575 9.35126 9.57255 9.58187C9.33936 9.81248 9.05856 9.98931 8.74984 10.1L8.77984 10.1075ZM10.7373 13.34L9.98734 11.195C10.4857 10.8841 10.9064 10.4634 11.2173 9.965L13.3623 10.715C12.7856 11.8427 11.8667 12.759 10.7373 13.3325V13.34ZM13.9998 8.645C13.9998 8.705 13.9998 8.765 13.9998 8.8325C13.9858 8.98413 13.9608 9.13453 13.9248 9.2825C13.9248 9.2825 13.9248 9.2825 13.9248 9.3275L11.7798 8.5775C11.8399 8.21497 11.8399 7.84503 11.7798 7.4825L13.9248 6.7325C13.9248 6.7325 13.9248 6.7325 13.9248 6.7775C13.9608 6.92547 13.9858 7.07587 13.9998 7.2275C13.9998 7.295 13.9998 7.355 13.9998 7.415C14.0499 7.84355 14.0499 8.27645 13.9998 8.705V8.645Z" fill="#5F5F5F"/>
</svg>
