<svg width="16" height="18" viewBox="0 0 16 18" fill="none" xmlns="http://www.w3.org/2000/svg">
<path d="M14.8695 12.0975L13.3695 11.235L14.037 11.055C14.1351 11.0322 14.2275 10.9898 14.3088 10.9305C14.3901 10.8712 14.4587 10.7961 14.5104 10.7098C14.5621 10.6234 14.5959 10.5275 14.6097 10.4278C14.6236 10.3281 14.6172 10.2266 14.591 10.1294C14.5648 10.0323 14.5194 9.94133 14.4573 9.86209C14.3952 9.78285 14.3179 9.71691 14.2298 9.66821C14.1417 9.6195 14.0447 9.58903 13.9446 9.5786C13.8445 9.56817 13.7433 9.578 13.647 9.6075L11.532 10.1775L9.49954 9L11.532 7.8225L13.647 8.3925H13.842C14.0409 8.41836 14.242 8.36414 14.4009 8.24177C14.5599 8.11941 14.6637 7.93891 14.6895 7.74C14.7154 7.54109 14.6612 7.34005 14.5388 7.18111C14.4164 7.02218 14.2359 6.91836 14.037 6.8925L13.3695 6.75L14.8695 5.8875C14.9552 5.83825 15.0304 5.77261 15.0907 5.69432C15.151 5.61604 15.1953 5.52663 15.2211 5.43122C15.2469 5.33581 15.2536 5.23626 15.2409 5.13825C15.2282 5.04024 15.1963 4.94569 15.147 4.86C15.0978 4.77431 15.0322 4.69916 14.9539 4.63884C14.8756 4.57852 14.7862 4.53422 14.6908 4.50845C14.5953 4.48268 14.4958 4.47596 14.3978 4.48866C14.2998 4.50137 14.2052 4.53325 14.1195 4.5825L12.4995 5.5275L12.7245 4.695C12.754 4.59877 12.7639 4.49758 12.7534 4.39746C12.743 4.29735 12.7125 4.20036 12.6638 4.11227C12.6151 4.02418 12.5492 3.9468 12.4699 3.88473C12.3907 3.82267 12.2998 3.77719 12.2026 3.751C12.1054 3.72482 12.0039 3.71846 11.9042 3.73232C11.8045 3.74617 11.7086 3.77995 11.6223 3.83165C11.5359 3.88334 11.4608 3.95189 11.4015 4.03322C11.3422 4.11454 11.2999 4.20697 11.277 4.305L10.662 6.555L8.74954 7.7025V5.355L10.302 3.8025C10.4417 3.66198 10.5201 3.47189 10.5201 3.27375C10.5201 3.07561 10.4417 2.88552 10.302 2.745C10.2323 2.6747 10.1494 2.61891 10.058 2.58083C9.96657 2.54276 9.86854 2.52315 9.76954 2.52315C9.67053 2.52315 9.5725 2.54276 9.4811 2.58083C9.38971 2.61891 9.30676 2.6747 9.23704 2.745L8.74954 3.2325V1.5C8.74954 1.30109 8.67052 1.11032 8.52987 0.96967C8.38921 0.829018 8.19845 0.75 7.99954 0.75C7.80062 0.75 7.60986 0.829018 7.46921 0.96967C7.32855 1.11032 7.24954 1.30109 7.24954 1.5V3.3525L6.64204 2.745C6.57231 2.6747 6.48936 2.61891 6.39797 2.58083C6.30657 2.54276 6.20854 2.52315 6.10954 2.52315C6.01053 2.52315 5.9125 2.54276 5.8211 2.58083C5.72971 2.61891 5.64676 2.6747 5.57704 2.745C5.43735 2.88552 5.35894 3.07561 5.35894 3.27375C5.35894 3.47189 5.43735 3.66198 5.57704 3.8025L7.24954 5.475V7.725L5.32204 6.585L4.70704 4.335C4.6842 4.23697 4.64186 4.14454 4.58255 4.06322C4.52323 3.98189 4.44815 3.91334 4.36179 3.86165C4.27542 3.80995 4.17953 3.77617 4.07984 3.76232C3.98014 3.74846 3.87867 3.75482 3.78148 3.781C3.68429 3.80719 3.59337 3.85267 3.51413 3.91473C3.43489 3.9768 3.36895 4.05418 3.32024 4.14227C3.27154 4.23036 3.24106 4.32735 3.23064 4.42746C3.22021 4.52758 3.23003 4.62877 3.25954 4.725L3.49954 5.5275L1.87954 4.5975C1.79385 4.54825 1.6993 4.51637 1.60129 4.50366C1.50328 4.49096 1.40373 4.49768 1.30831 4.52345C1.2129 4.54922 1.1235 4.59352 1.04521 4.65384C0.966923 4.71416 0.901282 4.78931 0.852036 4.875C0.80279 4.96069 0.770904 5.05524 0.758199 5.15325C0.745493 5.25126 0.752216 5.35081 0.777984 5.44622C0.830025 5.63892 0.956482 5.80304 1.12954 5.9025L2.62954 6.75L1.99954 6.945C1.80062 6.97086 1.62013 7.07468 1.49776 7.23361C1.3754 7.39255 1.32118 7.59359 1.34704 7.7925C1.37289 7.99141 1.47671 8.17191 1.63565 8.29427C1.79459 8.41664 1.99562 8.47086 2.19454 8.445H2.38954L4.50454 7.875L6.49954 9L4.46704 10.1775L2.35204 9.6075C2.2528 9.57065 2.14688 9.55523 2.04126 9.56224C1.93563 9.56926 1.83268 9.59855 1.73919 9.64821C1.6457 9.69786 1.56377 9.76674 1.49881 9.85032C1.43384 9.9339 1.38731 10.0303 1.36226 10.1331C1.33721 10.236 1.33422 10.343 1.35348 10.4471C1.37275 10.5512 1.41383 10.65 1.47403 10.7371C1.53422 10.8242 1.61217 10.8975 1.70274 10.9523C1.79332 11.0071 1.89447 11.0421 1.99954 11.055L2.66704 11.235L1.16704 12.0975C0.993982 12.197 0.867525 12.3611 0.815484 12.5538C0.763443 12.7465 0.79008 12.9519 0.889536 13.125C0.988992 13.2981 1.15312 13.4245 1.34581 13.4766C1.53851 13.5286 1.74398 13.502 1.91704 13.4025L3.49954 12.4725L3.27454 13.305C3.24481 13.401 3.23467 13.502 3.24474 13.602C3.25481 13.702 3.28487 13.799 3.33315 13.8871C3.38142 13.9753 3.44692 14.0528 3.52575 14.1151C3.60458 14.1775 3.69513 14.2233 3.79204 14.25C3.85683 14.2574 3.92225 14.2574 3.98704 14.25C4.15636 14.2558 4.32266 14.2041 4.45884 14.1033C4.59503 14.0025 4.69309 13.8586 4.73704 13.695L5.35204 11.445L7.24954 10.2975V12.645L5.69704 14.1975C5.55735 14.338 5.47894 14.5281 5.47894 14.7262C5.47894 14.9244 5.55735 15.1145 5.69704 15.255C5.7665 15.3259 5.84933 15.3822 5.94074 15.4209C6.03214 15.4595 6.13031 15.4796 6.22954 15.48C6.32877 15.4796 6.42693 15.4595 6.51834 15.4209C6.60974 15.3822 6.69257 15.3259 6.76204 15.255L7.24954 14.7675V16.5C7.24954 16.6989 7.32855 16.8897 7.46921 17.0303C7.60986 17.171 7.80062 17.25 7.99954 17.25C8.19845 17.25 8.38921 17.171 8.52987 17.0303C8.67052 16.8897 8.74954 16.6989 8.74954 16.5V14.6475L9.35704 15.255C9.42676 15.3253 9.50971 15.3811 9.6011 15.4192C9.6925 15.4572 9.79053 15.4768 9.88954 15.4768C9.98855 15.4768 10.0866 15.4572 10.178 15.4192C10.2694 15.3811 10.3523 15.3253 10.422 15.255C10.5617 15.1145 10.6401 14.9244 10.6401 14.7262C10.6401 14.5281 10.5617 14.338 10.422 14.1975L8.74954 12.525V10.275L10.677 11.3925L11.292 13.6425C11.336 13.8061 11.434 13.95 11.5702 14.0508C11.7064 14.1516 11.8727 14.2033 12.042 14.1975C12.1068 14.2049 12.1722 14.2049 12.237 14.1975C12.3328 14.1723 12.4226 14.1283 12.5013 14.0682C12.58 14.0081 12.646 13.933 12.6955 13.8472C12.745 13.7614 12.777 13.6667 12.7897 13.5685C12.8024 13.4703 12.7956 13.3705 12.7695 13.275L12.4995 12.4725L14.1045 13.4025C14.1902 13.4517 14.2848 13.4836 14.3828 13.4963C14.4808 13.509 14.5803 13.5023 14.6758 13.4766C14.7712 13.4508 14.8606 13.4065 14.9389 13.3462C15.0171 13.2858 15.0828 13.2107 15.132 13.125C15.1813 13.0393 15.2132 12.9448 15.2259 12.8468C15.2386 12.7487 15.2319 12.6492 15.2061 12.5538C15.1803 12.4584 15.136 12.369 15.0757 12.2907C15.0154 12.2124 14.9402 12.1467 14.8545 12.0975H14.8695Z" fill="#5F5F5F"/>
</svg>
