<svg width="20" height="20" viewBox="0 0 20 20" fill="none" xmlns="http://www.w3.org/2000/svg">
<path d="M9.99991 9C9.80213 9 9.60879 9.05865 9.44434 9.16853C9.27989 9.27841 9.15172 9.43459 9.07603 9.61732C9.00034 9.80004 8.98054 10.0011 9.01912 10.1951C9.05771 10.3891 9.15295 10.5673 9.2928 10.7071C9.43266 10.847 9.61084 10.9422 9.80482 10.9808C9.9988 11.0194 10.1999 10.9996 10.3826 10.9239C10.5653 10.8482 10.7215 10.72 10.8314 10.5556C10.9413 10.3911 10.9999 10.1978 10.9999 10C10.9999 9.73478 10.8946 9.48043 10.707 9.29289C10.5195 9.10536 10.2651 9 9.99991 9ZM17.6199 10L17.7299 9.86C19.0799 8 19.3999 6.29 18.6599 5C17.9199 3.71 16.2599 3.14 13.9999 3.37H13.8199C12.9099 1.3 11.5599 0 9.99991 0C8.43991 0 7.08991 1.3 6.18991 3.4L5.99991 3.37C3.73991 3.14 2.07991 3.71 1.33991 5C0.59991 6.29 0.91991 8 2.26991 9.86L2.37991 10L2.26991 10.14C0.91991 12 0.59991 13.71 1.33991 15C1.99991 16.1 3.26991 16.68 4.99991 16.68C5.30991 16.68 5.62991 16.68 5.99991 16.63H6.17991C7.08991 18.7 8.43991 20 9.99991 20C11.5599 20 12.9099 18.7 13.8099 16.6H13.9899C14.3299 16.6 14.6499 16.65 14.9899 16.65C16.7599 16.65 18.0599 16.07 18.6899 14.97C19.4299 13.68 19.1099 11.97 17.7599 10.11L17.6199 10ZM3.06991 6C3.31991 5.56 4.06991 5.32 5.06991 5.32H5.55991C5.40321 5.93517 5.2863 6.5598 5.20991 7.19C4.70045 7.57537 4.21613 7.99288 3.75991 8.44C2.99991 7.44 2.77991 6.5 3.06991 6ZM3.06991 14C2.77991 13.5 3.06991 12.56 3.73991 11.53C4.19613 11.9771 4.68045 12.3946 5.18991 12.78C5.26631 13.4135 5.38322 14.0415 5.53991 14.66C4.29991 14.74 3.35991 14.5 3.06991 14ZM9.99991 2C10.5599 2 11.2299 2.66 11.7999 3.83C11.189 4.00731 10.5881 4.21762 9.99991 4.46C9.41174 4.21762 8.81085 4.00731 8.19991 3.83C8.76991 2.66 9.43991 2 9.99991 2ZM9.99991 18C9.43991 18 8.76991 17.34 8.19991 16.17C8.81085 15.9927 9.41174 15.7824 9.99991 15.54C10.5881 15.7824 11.189 15.9927 11.7999 16.17C11.2299 17.34 10.5599 18 9.99991 18ZM12.9299 11.69C12.4699 12.01 11.9999 12.31 11.4999 12.6C10.9999 12.89 10.4999 13.15 9.99991 13.38C9.49991 13.1467 8.99991 12.8867 8.49991 12.6C7.99991 12.31 7.49991 12.01 7.06991 11.69C6.99991 11.15 6.99991 10.59 6.99991 10C6.99991 9.41 6.99991 8.85 7.06991 8.31C7.52991 7.99 7.99991 7.69 8.49991 7.4C8.99991 7.11 9.49991 6.85 9.99991 6.62C10.4999 6.85333 10.9999 7.11333 11.4999 7.4C11.9999 7.69 12.4999 7.99 12.9299 8.31C12.9299 8.85 12.9999 9.41 12.9999 10C12.9999 10.59 12.9999 11.15 12.9299 11.69ZM16.9299 14C16.6399 14.5 15.6999 14.75 14.4599 14.66C14.6166 14.0415 14.7335 13.4135 14.8099 12.78C15.3194 12.3946 15.8037 11.9771 16.2599 11.53C16.9999 12.56 17.2199 13.5 16.9299 14ZM16.2599 8.47C15.8037 8.02288 15.3194 7.60537 14.8099 7.22C14.7335 6.5898 14.6166 5.96517 14.4599 5.35H14.9499C15.9499 5.35 16.6799 5.59 16.9499 6.03C17.2199 6.47 16.9999 7.44 16.2599 8.47Z" fill="black"/>
</svg>
