<svg width="206" height="53" viewBox="0 0 206 53" fill="none" xmlns="http://www.w3.org/2000/svg">
<path d="M110 10C109.735 10 109.48 10.1054 109.293 10.2929C109.105 10.4804 109 10.7348 109 11V14.38L107.52 12.9C106.997 12.3815 106.291 12.0906 105.555 12.0906C104.819 12.0906 104.113 12.3815 103.59 12.9L102.89 13.61L100.41 11.12C99.8874 10.6015 99.1811 10.3106 98.445 10.3106C97.7089 10.3106 97.0026 10.6015 96.48 11.12L95 12.61V7C95 6.73478 95.1054 6.48043 95.2929 6.29289C95.4804 6.10536 95.7348 6 96 6H104C104.265 6 104.52 5.89464 104.707 5.70711C104.895 5.51957 105 5.26522 105 5C105 4.73478 104.895 4.48043 104.707 4.29289C104.52 4.10536 104.265 4 104 4H96C95.2044 4 94.4413 4.31607 93.8787 4.87868C93.3161 5.44129 93 6.20435 93 7V19.22C93.0026 19.9565 93.2964 20.6621 93.8172 21.1828C94.3379 21.7036 95.0435 21.9974 95.78 22H108.22C108.491 21.9978 108.76 21.9574 109.02 21.88C109.597 21.718 110.106 21.3711 110.467 20.8924C110.828 20.4137 111.023 19.8297 111.02 19.23V11C111.02 10.867 110.994 10.7353 110.942 10.6126C110.891 10.49 110.815 10.3789 110.72 10.2857C110.625 10.1926 110.512 10.1194 110.389 10.0703C110.265 10.0212 110.133 9.99734 110 10ZM96 20C95.7348 20 95.4804 19.8946 95.2929 19.7071C95.1054 19.5196 95 19.2652 95 19V15.43L97.89 12.54C98.0362 12.3947 98.2339 12.3131 98.44 12.3131C98.6461 12.3131 98.8438 12.3947 98.99 12.54L106.46 20H96ZM109 19C108.994 19.1936 108.931 19.3812 108.82 19.54L104.3 15L105.01 14.3C105.082 14.2268 105.167 14.1687 105.262 14.129C105.356 14.0893 105.458 14.0689 105.56 14.0689C105.662 14.0689 105.764 14.0893 105.858 14.129C105.953 14.1687 106.038 14.2268 106.11 14.3L109 17.21V19ZM112 4H111V3C111 2.73478 110.895 2.48043 110.707 2.29289C110.52 2.10536 110.265 2 110 2C109.735 2 109.48 2.10536 109.293 2.29289C109.105 2.48043 109 2.73478 109 3V4H108C107.735 4 107.48 4.10536 107.293 4.29289C107.105 4.48043 107 4.73478 107 5C107 5.26522 107.105 5.51957 107.293 5.70711C107.48 5.89464 107.735 6 108 6H109V7C109 7.26522 109.105 7.51957 109.293 7.70711C109.48 7.89464 109.735 8 110 8C110.265 8 110.52 7.89464 110.707 7.70711C110.895 7.51957 111 7.26522 111 7V6H112C112.265 6 112.52 5.89464 112.707 5.70711C112.895 5.51957 113 5.26522 113 5C113 4.73478 112.895 4.48043 112.707 4.29289C112.52 4.10536 112.265 4 112 4Z" fill="#031569"/>
<path d="M5.392 49.208C4.496 49.208 3.71467 48.9893 3.048 48.552C2.38667 48.1147 1.872 47.528 1.504 46.792C1.14133 46.0507 0.96 45.2293 0.96 44.328V37.8H2.624V44.328C2.624 44.9147 2.73067 45.4533 2.944 45.944C3.16267 46.4293 3.47733 46.8187 3.888 47.112C4.304 47.4 4.80533 47.544 5.392 47.544C5.99467 47.544 6.50133 47.4 6.912 47.112C7.32267 46.8187 7.632 46.4293 7.84 45.944C8.05333 45.4533 8.16 44.9147 8.16 44.328V37.8H9.824V44.328C9.824 45.0053 9.72 45.64 9.512 46.232C9.304 46.8187 9.00533 47.336 8.616 47.784C8.22667 48.232 7.76 48.5813 7.216 48.832C6.672 49.0827 6.064 49.208 5.392 49.208ZM13.4053 53H11.7413V41H13.4053V42.176C13.6719 41.7653 14.0133 41.432 14.4293 41.176C14.8453 40.92 15.3359 40.792 15.9013 40.792C16.4826 40.792 17.0266 40.9013 17.5333 41.12C18.0453 41.3387 18.4933 41.6427 18.8773 42.032C19.2613 42.416 19.5626 42.8613 19.7812 43.368C19.9999 43.8747 20.1093 44.4187 20.1093 45C20.1093 45.5813 19.9999 46.128 19.7812 46.64C19.5626 47.152 19.2613 47.6027 18.8773 47.992C18.4933 48.376 18.0453 48.6773 17.5333 48.896C17.0266 49.1147 16.4826 49.224 15.9013 49.224C15.3359 49.224 14.8453 49.096 14.4293 48.84C14.0133 48.5787 13.6719 48.2453 13.4053 47.84V53ZM15.8853 42.4C15.4213 42.4 15.0133 42.5173 14.6613 42.752C14.3093 42.9867 14.0346 43.3013 13.8373 43.696C13.6399 44.0853 13.5413 44.52 13.5413 45C13.5413 45.48 13.6399 45.9173 13.8373 46.312C14.0346 46.7067 14.3093 47.0213 14.6613 47.256C15.0133 47.4907 15.4213 47.608 15.8853 47.608C16.3439 47.608 16.7653 47.4933 17.1493 47.264C17.5333 47.0293 17.8399 46.7147 18.0693 46.32C18.2986 45.9253 18.4133 45.4853 18.4133 45C18.4133 44.5253 18.2986 44.0907 18.0693 43.696C17.8453 43.3013 17.5413 42.9867 17.1573 42.752C16.7733 42.5173 16.3493 42.4 15.8853 42.4ZM21.3038 49V37H22.9678V49H21.3038ZM28.2925 49.208C27.5565 49.208 26.8845 49.0187 26.2765 48.64C25.6738 48.2613 25.1912 47.7547 24.8285 47.12C24.4712 46.48 24.2925 45.7733 24.2925 45C24.2925 44.4133 24.3965 43.8667 24.6045 43.36C24.8125 42.848 25.0978 42.4 25.4605 42.016C25.8285 41.6267 26.2552 41.3227 26.7405 41.104C27.2258 40.8853 27.7432 40.776 28.2925 40.776C29.0285 40.776 29.6978 40.9653 30.3005 41.344C30.9085 41.7227 31.3912 42.232 31.7485 42.872C32.1112 43.512 32.2925 44.2213 32.2925 45C32.2925 45.5813 32.1885 46.1253 31.9805 46.632C31.7725 47.1387 31.4845 47.5867 31.1165 47.976C30.7538 48.36 30.3298 48.6613 29.8445 48.88C29.3645 49.0987 28.8472 49.208 28.2925 49.208ZM28.2925 47.544C28.7352 47.544 29.1325 47.4267 29.4845 47.192C29.8365 46.9573 30.1138 46.648 30.3165 46.264C30.5245 45.8747 30.6285 45.4533 30.6285 45C30.6285 44.536 30.5218 44.1093 30.3085 43.72C30.1005 43.3307 29.8205 43.0213 29.4685 42.792C29.1165 42.5573 28.7245 42.44 28.2925 42.44C27.8552 42.44 27.4578 42.5573 27.1005 42.792C26.7485 43.0267 26.4685 43.3387 26.2605 43.728C26.0578 44.1173 25.9565 44.5413 25.9565 45C25.9565 45.4747 26.0632 45.904 26.2765 46.288C26.4898 46.672 26.7725 46.9787 27.1245 47.208C27.4818 47.432 27.8712 47.544 28.2925 47.544ZM39.7934 41H41.4574V49H39.7854L39.7214 47.84C39.4867 48.2507 39.1694 48.5813 38.7694 48.832C38.3694 49.0827 37.8974 49.208 37.3534 49.208C36.7667 49.208 36.2147 49.0987 35.6974 48.88C35.18 48.656 34.724 48.3467 34.3294 47.952C33.94 47.5573 33.636 47.104 33.4174 46.592C33.1987 46.0747 33.0894 45.52 33.0894 44.928C33.0894 44.3573 33.196 43.8213 33.4094 43.32C33.6227 42.8133 33.9187 42.3707 34.2974 41.992C34.676 41.6133 35.1134 41.3173 35.6094 41.104C36.1107 40.8853 36.6467 40.776 37.2174 40.776C37.7987 40.776 38.3107 40.9093 38.7534 41.176C39.2014 41.4373 39.572 41.7733 39.8654 42.184L39.7934 41ZM37.3134 47.6C37.7827 47.6 38.1934 47.4853 38.5454 47.256C38.8974 47.0213 39.1694 46.7067 39.3614 46.312C39.5587 45.9173 39.6574 45.48 39.6574 45C39.6574 44.5147 39.5587 44.0747 39.3614 43.68C39.164 43.2853 38.8894 42.9733 38.5374 42.744C38.1907 42.5093 37.7827 42.392 37.3134 42.392C36.8494 42.392 36.4254 42.5093 36.0414 42.744C35.6574 42.9787 35.3534 43.2933 35.1294 43.688C34.9054 44.0827 34.7934 44.52 34.7934 45C34.7934 45.4853 34.908 45.9253 35.1374 46.32C35.372 46.7093 35.6787 47.0213 36.0574 47.256C36.4414 47.4853 36.86 47.6 37.3134 47.6ZM49.1295 37H50.7935V49H49.1295V47.824C48.8682 48.24 48.5268 48.576 48.1055 48.832C47.6842 49.0827 47.1908 49.208 46.6255 49.208C46.0442 49.208 45.5002 49.0987 44.9935 48.88C44.4868 48.6613 44.0388 48.36 43.6495 47.976C43.2655 47.5867 42.9642 47.1387 42.7455 46.632C42.5268 46.1253 42.4175 45.5813 42.4175 45C42.4175 44.4187 42.5268 43.8747 42.7455 43.368C42.9642 42.856 43.2655 42.408 43.6495 42.024C44.0388 41.6347 44.4868 41.3307 44.9935 41.112C45.5002 40.8933 46.0442 40.784 46.6255 40.784C47.1908 40.784 47.6842 40.912 48.1055 41.168C48.5268 41.4187 48.8682 41.7493 49.1295 42.16V37ZM46.6415 47.6C47.1108 47.6 47.5215 47.4853 47.8735 47.256C48.2255 47.0213 48.4975 46.7067 48.6895 46.312C48.8868 45.9173 48.9855 45.48 48.9855 45C48.9855 44.5147 48.8868 44.0747 48.6895 43.68C48.4922 43.2853 48.2175 42.9733 47.8655 42.744C47.5188 42.5093 47.1108 42.392 46.6415 42.392C46.1775 42.392 45.7535 42.5093 45.3695 42.744C44.9908 42.9787 44.6868 43.2933 44.4575 43.688C44.2335 44.0827 44.1215 44.52 44.1215 45C44.1215 45.4853 44.2362 45.9253 44.4655 46.32C44.7002 46.7093 45.0068 47.0213 45.3855 47.256C45.7695 47.4853 46.1882 47.6 46.6415 47.6ZM58.2178 53H56.5538V41H58.2178V42.176C58.4844 41.7653 58.8258 41.432 59.2418 41.176C59.6578 40.92 60.1484 40.792 60.7138 40.792C61.2951 40.792 61.8391 40.9013 62.3458 41.12C62.8578 41.3387 63.3058 41.6427 63.6898 42.032C64.0738 42.416 64.3751 42.8613 64.5938 43.368C64.8124 43.8747 64.9218 44.4187 64.9218 45C64.9218 45.5813 64.8124 46.128 64.5938 46.64C64.3751 47.152 64.0738 47.6027 63.6898 47.992C63.3058 48.376 62.8578 48.6773 62.3458 48.896C61.8391 49.1147 61.2951 49.224 60.7138 49.224C60.1484 49.224 59.6578 49.096 59.2418 48.84C58.8258 48.5787 58.4844 48.2453 58.2178 47.84V53ZM60.6978 42.4C60.2338 42.4 59.8258 42.5173 59.4738 42.752C59.1218 42.9867 58.8471 43.3013 58.6498 43.696C58.4524 44.0853 58.3538 44.52 58.3538 45C58.3538 45.48 58.4524 45.9173 58.6498 46.312C58.8471 46.7067 59.1218 47.0213 59.4738 47.256C59.8258 47.4907 60.2338 47.608 60.6978 47.608C61.1564 47.608 61.5778 47.4933 61.9618 47.264C62.3458 47.0293 62.6524 46.7147 62.8818 46.32C63.1111 45.9253 63.2258 45.4853 63.2258 45C63.2258 44.5253 63.1111 44.0907 62.8818 43.696C62.6578 43.3013 62.3538 42.9867 61.9698 42.752C61.5858 42.5173 61.1618 42.4 60.6978 42.4ZM73.3163 43.984V49H71.6523V44.392C71.6523 44.0347 71.5643 43.7093 71.3883 43.416C71.2176 43.1227 70.9856 42.8907 70.6923 42.72C70.4043 42.544 70.0789 42.456 69.7163 42.456C69.3643 42.456 69.0416 42.544 68.7483 42.72C68.4549 42.8907 68.2203 43.1227 68.0443 43.416C67.8683 43.7093 67.7803 44.0347 67.7803 44.392V49H66.1163V37H67.7803V41.848C68.0576 41.5173 68.3989 41.256 68.8043 41.064C69.2096 40.872 69.6469 40.776 70.1163 40.776C70.7083 40.776 71.2469 40.92 71.7323 41.208C72.2176 41.496 72.6016 41.8827 72.8843 42.368C73.1723 42.8533 73.3163 43.392 73.3163 43.984ZM78.2769 49.208C77.5409 49.208 76.8689 49.0187 76.2609 48.64C75.6582 48.2613 75.1755 47.7547 74.8129 47.12C74.4555 46.48 74.2769 45.7733 74.2769 45C74.2769 44.4133 74.3809 43.8667 74.5889 43.36C74.7969 42.848 75.0822 42.4 75.4449 42.016C75.8129 41.6267 76.2395 41.3227 76.7249 41.104C77.2102 40.8853 77.7275 40.776 78.2769 40.776C79.0129 40.776 79.6822 40.9653 80.2849 41.344C80.8929 41.7227 81.3755 42.232 81.7329 42.872C82.0955 43.512 82.2769 44.2213 82.2769 45C82.2769 45.5813 82.1729 46.1253 81.9649 46.632C81.7569 47.1387 81.4689 47.5867 81.1009 47.976C80.7382 48.36 80.3142 48.6613 79.8289 48.88C79.3489 49.0987 78.8315 49.208 78.2769 49.208ZM78.2769 47.544C78.7195 47.544 79.1169 47.4267 79.4689 47.192C79.8209 46.9573 80.0982 46.648 80.3009 46.264C80.5089 45.8747 80.6129 45.4533 80.6129 45C80.6129 44.536 80.5062 44.1093 80.2929 43.72C80.0849 43.3307 79.8049 43.0213 79.4529 42.792C79.1009 42.5573 78.7089 42.44 78.2769 42.44C77.8395 42.44 77.4422 42.5573 77.0849 42.792C76.7329 43.0267 76.4529 43.3387 76.2449 43.728C76.0422 44.1173 75.9409 44.5413 75.9409 45C75.9409 45.4747 76.0475 45.904 76.2609 46.288C76.4742 46.672 76.7569 46.9787 77.1089 47.208C77.4662 47.432 77.8555 47.544 78.2769 47.544ZM87.7465 42.664H86.0665L86.0585 49H84.3945L84.4025 42.664H83.1305V41H84.4025L84.3945 38.488H86.0585L86.0665 41H87.7465V42.664ZM92.5113 49.208C91.7753 49.208 91.1033 49.0187 90.4953 48.64C89.8926 48.2613 89.4099 47.7547 89.0473 47.12C88.6899 46.48 88.5113 45.7733 88.5113 45C88.5113 44.4133 88.6153 43.8667 88.8233 43.36C89.0313 42.848 89.3166 42.4 89.6793 42.016C90.0473 41.6267 90.4739 41.3227 90.9593 41.104C91.4446 40.8853 91.9619 40.776 92.5113 40.776C93.2473 40.776 93.9166 40.9653 94.5193 41.344C95.1273 41.7227 95.6099 42.232 95.9673 42.872C96.3299 43.512 96.5113 44.2213 96.5113 45C96.5113 45.5813 96.4073 46.1253 96.1993 46.632C95.9913 47.1387 95.7033 47.5867 95.3353 47.976C94.9726 48.36 94.5486 48.6613 94.0633 48.88C93.5833 49.0987 93.0659 49.208 92.5113 49.208ZM92.5113 47.544C92.9539 47.544 93.3513 47.4267 93.7033 47.192C94.0553 46.9573 94.3326 46.648 94.5353 46.264C94.7433 45.8747 94.8473 45.4533 94.8473 45C94.8473 44.536 94.7406 44.1093 94.5273 43.72C94.3193 43.3307 94.0393 43.0213 93.6873 42.792C93.3353 42.5573 92.9433 42.44 92.5113 42.44C92.0739 42.44 91.6766 42.5573 91.3193 42.792C90.9673 43.0267 90.6873 43.3387 90.4793 43.728C90.2766 44.1173 90.1753 44.5413 90.1753 45C90.1753 45.4747 90.2819 45.904 90.4953 46.288C90.7086 46.672 90.9913 46.9787 91.3433 47.208C91.7006 47.432 92.0899 47.544 92.5113 47.544ZM105.308 49.208C104.572 49.208 103.9 49.0187 103.292 48.64C102.689 48.2613 102.207 47.7547 101.844 47.12C101.487 46.48 101.308 45.7733 101.308 45C101.308 44.4133 101.412 43.8667 101.62 43.36C101.828 42.848 102.113 42.4 102.476 42.016C102.844 41.6267 103.271 41.3227 103.756 41.104C104.241 40.8853 104.759 40.776 105.308 40.776C106.044 40.776 106.713 40.9653 107.316 41.344C107.924 41.7227 108.407 42.232 108.764 42.872C109.127 43.512 109.308 44.2213 109.308 45C109.308 45.5813 109.204 46.1253 108.996 46.632C108.788 47.1387 108.5 47.5867 108.132 47.976C107.769 48.36 107.345 48.6613 106.86 48.88C106.38 49.0987 105.863 49.208 105.308 49.208ZM105.308 47.544C105.751 47.544 106.148 47.4267 106.5 47.192C106.852 46.9573 107.129 46.648 107.332 46.264C107.54 45.8747 107.644 45.4533 107.644 45C107.644 44.536 107.537 44.1093 107.324 43.72C107.116 43.3307 106.836 43.0213 106.484 42.792C106.132 42.5573 105.74 42.44 105.308 42.44C104.871 42.44 104.473 42.5573 104.116 42.792C103.764 43.0267 103.484 43.3387 103.276 43.728C103.073 44.1173 102.972 44.5413 102.972 45C102.972 45.4747 103.079 45.904 103.292 46.288C103.505 46.672 103.788 46.9787 104.14 47.208C104.497 47.432 104.887 47.544 105.308 47.544ZM110.601 49V41H112.265V41.848C112.542 41.5173 112.883 41.256 113.289 41.064C113.694 40.872 114.131 40.776 114.601 40.776C114.899 40.776 115.195 40.816 115.489 40.896L114.825 42.576C114.617 42.496 114.409 42.456 114.201 42.456C113.849 42.456 113.526 42.544 113.233 42.72C112.939 42.8907 112.705 43.1227 112.529 43.416C112.353 43.7093 112.265 44.0347 112.265 44.392V49H110.601ZM122.86 49.152C122.439 49.1253 122.028 49.04 121.628 48.896C121.228 48.752 120.876 48.5573 120.572 48.312C120.273 48.0613 120.049 47.768 119.9 47.432L121.316 46.824C121.385 46.968 121.505 47.1093 121.676 47.248C121.852 47.3867 122.057 47.5013 122.292 47.592C122.527 47.6773 122.772 47.72 123.028 47.72C123.279 47.72 123.511 47.6853 123.724 47.616C123.943 47.5413 124.121 47.4293 124.26 47.28C124.399 47.1307 124.468 46.952 124.468 46.744C124.468 46.5093 124.388 46.328 124.228 46.2C124.073 46.0667 123.879 45.9653 123.644 45.896C123.409 45.8267 123.175 45.76 122.94 45.696C122.417 45.5787 121.937 45.4187 121.5 45.216C121.068 45.008 120.724 44.744 120.468 44.424C120.212 44.0987 120.084 43.7013 120.084 43.232C120.084 42.72 120.223 42.2773 120.5 41.904C120.777 41.5253 121.14 41.2347 121.588 41.032C122.041 40.8293 122.524 40.728 123.036 40.728C123.676 40.728 124.263 40.864 124.796 41.136C125.329 41.408 125.737 41.7813 126.02 42.256L124.7 43.04C124.62 42.88 124.5 42.736 124.34 42.608C124.18 42.48 123.999 42.3787 123.796 42.304C123.593 42.224 123.383 42.1787 123.164 42.168C122.892 42.1573 122.639 42.1893 122.404 42.264C122.175 42.3333 121.991 42.4453 121.852 42.6C121.713 42.7547 121.644 42.952 121.644 43.192C121.644 43.4267 121.727 43.6027 121.892 43.72C122.057 43.832 122.265 43.9227 122.516 43.992C122.772 44.0613 123.033 44.1387 123.3 44.224C123.775 44.3733 124.22 44.5573 124.636 44.776C125.052 44.9893 125.388 45.2533 125.644 45.568C125.9 45.8827 126.023 46.2667 126.012 46.72C126.012 47.2213 125.86 47.6613 125.556 48.04C125.257 48.4187 124.868 48.7067 124.388 48.904C123.908 49.1013 123.399 49.184 122.86 49.152ZM132.497 46.728L133.985 47.536C133.622 48.0427 133.161 48.448 132.601 48.752C132.046 49.056 131.443 49.208 130.793 49.208C130.057 49.208 129.385 49.0187 128.777 48.64C128.174 48.2613 127.691 47.7547 127.329 47.12C126.971 46.48 126.793 45.7733 126.793 45C126.793 44.4133 126.897 43.8667 127.105 43.36C127.313 42.848 127.598 42.4 127.961 42.016C128.329 41.6267 128.755 41.3227 129.241 41.104C129.726 40.8853 130.243 40.776 130.793 40.776C131.443 40.776 132.046 40.928 132.601 41.232C133.161 41.536 133.622 41.944 133.985 42.456L132.497 43.264C132.273 42.9973 132.011 42.7947 131.713 42.656C131.414 42.512 131.107 42.44 130.793 42.44C130.355 42.44 129.958 42.56 129.601 42.8C129.249 43.0347 128.969 43.3467 128.761 43.736C128.558 44.12 128.457 44.5413 128.457 45C128.457 45.4533 128.561 45.8747 128.769 46.264C128.977 46.648 129.257 46.9573 129.609 47.192C129.966 47.4267 130.361 47.544 130.793 47.544C131.123 47.544 131.438 47.4693 131.737 47.32C132.035 47.1707 132.289 46.9733 132.497 46.728ZM141.45 41H143.114V49H141.442L141.378 47.84C141.143 48.2507 140.826 48.5813 140.426 48.832C140.026 49.0827 139.554 49.208 139.01 49.208C138.423 49.208 137.871 49.0987 137.354 48.88C136.836 48.656 136.38 48.3467 135.986 47.952C135.596 47.5573 135.292 47.104 135.074 46.592C134.855 46.0747 134.746 45.52 134.746 44.928C134.746 44.3573 134.852 43.8213 135.066 43.32C135.279 42.8133 135.575 42.3707 135.954 41.992C136.332 41.6133 136.77 41.3173 137.266 41.104C137.767 40.8853 138.303 40.776 138.874 40.776C139.455 40.776 139.967 40.9093 140.41 41.176C140.858 41.4373 141.228 41.7733 141.522 42.184L141.45 41ZM138.97 47.6C139.439 47.6 139.85 47.4853 140.202 47.256C140.554 47.0213 140.826 46.7067 141.018 46.312C141.215 45.9173 141.314 45.48 141.314 45C141.314 44.5147 141.215 44.0747 141.018 43.68C140.82 43.2853 140.546 42.9733 140.194 42.744C139.847 42.5093 139.439 42.392 138.97 42.392C138.506 42.392 138.082 42.5093 137.698 42.744C137.314 42.9787 137.01 43.2933 136.786 43.688C136.562 44.0827 136.45 44.52 136.45 45C136.45 45.4853 136.564 45.9253 136.794 46.32C137.028 46.7093 137.335 47.0213 137.714 47.256C138.098 47.4853 138.516 47.6 138.97 47.6ZM151.91 43.984V49H150.246V44.392C150.246 44.0347 150.158 43.7093 149.982 43.416C149.811 43.1227 149.579 42.8907 149.286 42.72C148.998 42.544 148.673 42.456 148.31 42.456C147.958 42.456 147.635 42.544 147.342 42.72C147.049 42.8907 146.814 43.1227 146.638 43.416C146.462 43.7093 146.374 44.0347 146.374 44.392V49H144.71V41H146.374V41.848C146.651 41.5173 146.993 41.256 147.398 41.064C147.803 40.872 148.241 40.776 148.71 40.776C149.302 40.776 149.841 40.92 150.326 41.208C150.811 41.496 151.195 41.8827 151.478 42.368C151.766 42.8533 151.91 43.392 151.91 43.984ZM157.351 49V37H159.015V49H157.351ZM160.929 41H162.593V49H160.929V41ZM161.777 39.84C161.521 39.84 161.307 39.7573 161.137 39.592C160.966 39.4267 160.881 39.2187 160.881 38.968C160.881 38.7227 160.966 38.5173 161.137 38.352C161.307 38.1813 161.518 38.096 161.769 38.096C162.014 38.096 162.222 38.1813 162.393 38.352C162.563 38.5173 162.649 38.7227 162.649 38.968C162.649 39.2187 162.563 39.4267 162.393 39.592C162.227 39.7573 162.022 39.84 161.777 39.84ZM169.59 46.728L171.078 47.536C170.716 48.0427 170.254 48.448 169.694 48.752C169.14 49.056 168.537 49.208 167.886 49.208C167.15 49.208 166.478 49.0187 165.87 48.64C165.268 48.2613 164.785 47.7547 164.422 47.12C164.065 46.48 163.886 45.7733 163.886 45C163.886 44.4133 163.99 43.8667 164.198 43.36C164.406 42.848 164.692 42.4 165.054 42.016C165.422 41.6267 165.849 41.3227 166.334 41.104C166.82 40.8853 167.337 40.776 167.886 40.776C168.537 40.776 169.14 40.928 169.694 41.232C170.254 41.536 170.716 41.944 171.078 42.456L169.59 43.264C169.366 42.9973 169.105 42.7947 168.806 42.656C168.508 42.512 168.201 42.44 167.886 42.44C167.449 42.44 167.052 42.56 166.694 42.8C166.342 43.0347 166.062 43.3467 165.854 43.736C165.652 44.12 165.55 44.5413 165.55 45C165.55 45.4533 165.654 45.8747 165.862 46.264C166.07 46.648 166.35 46.9573 166.702 47.192C167.06 47.4267 167.454 47.544 167.886 47.544C168.217 47.544 168.532 47.4693 168.83 47.32C169.129 47.1707 169.382 46.9733 169.59 46.728ZM175.839 49.208C175.103 49.208 174.431 49.0187 173.823 48.64C173.221 48.2613 172.738 47.7547 172.375 47.12C172.018 46.48 171.839 45.7733 171.839 45C171.839 44.4133 171.943 43.8667 172.151 43.36C172.359 42.848 172.645 42.4 173.007 42.016C173.375 41.6267 173.802 41.3227 174.287 41.104C174.773 40.8853 175.29 40.776 175.839 40.776C176.453 40.776 177.015 40.904 177.527 41.16C178.039 41.4107 178.477 41.76 178.839 42.208C179.202 42.6507 179.469 43.1627 179.639 43.744C179.81 44.32 179.861 44.9333 179.791 45.584H173.623C173.693 45.952 173.826 46.2853 174.023 46.584C174.226 46.8773 174.482 47.1093 174.791 47.28C175.106 47.4507 175.455 47.5387 175.839 47.544C176.245 47.544 176.613 47.4427 176.943 47.24C177.279 47.0373 177.554 46.7573 177.767 46.4L179.455 46.792C179.135 47.5013 178.653 48.0827 178.007 48.536C177.362 48.984 176.639 49.208 175.839 49.208ZM173.567 44.312H178.111C178.058 43.928 177.922 43.5813 177.703 43.272C177.49 42.9573 177.221 42.7093 176.895 42.528C176.575 42.3413 176.223 42.248 175.839 42.248C175.461 42.248 175.109 42.3387 174.783 42.52C174.463 42.7013 174.197 42.9493 173.983 43.264C173.775 43.5733 173.637 43.9227 173.567 44.312ZM188.316 43.984V49H186.652V44.392C186.652 44.0347 186.564 43.7093 186.388 43.416C186.218 43.1227 185.986 42.8907 185.692 42.72C185.404 42.544 185.079 42.456 184.716 42.456C184.364 42.456 184.042 42.544 183.748 42.72C183.455 42.8907 183.22 43.1227 183.044 43.416C182.868 43.7093 182.78 44.0347 182.78 44.392V49H181.116V41H182.78V41.848C183.058 41.5173 183.399 41.256 183.804 41.064C184.21 40.872 184.647 40.776 185.116 40.776C185.708 40.776 186.247 40.92 186.732 41.208C187.218 41.496 187.602 41.8827 187.884 42.368C188.172 42.8533 188.316 43.392 188.316 43.984ZM194.981 46.728L196.469 47.536C196.106 48.0427 195.645 48.448 195.085 48.752C194.53 49.056 193.928 49.208 193.277 49.208C192.541 49.208 191.869 49.0187 191.261 48.64C190.658 48.2613 190.176 47.7547 189.813 47.12C189.456 46.48 189.277 45.7733 189.277 45C189.277 44.4133 189.381 43.8667 189.589 43.36C189.797 42.848 190.082 42.4 190.445 42.016C190.813 41.6267 191.24 41.3227 191.725 41.104C192.21 40.8853 192.728 40.776 193.277 40.776C193.928 40.776 194.53 40.928 195.085 41.232C195.645 41.536 196.106 41.944 196.469 42.456L194.981 43.264C194.757 42.9973 194.496 42.7947 194.197 42.656C193.898 42.512 193.592 42.44 193.277 42.44C192.84 42.44 192.442 42.56 192.085 42.8C191.733 43.0347 191.453 43.3467 191.245 43.736C191.042 44.12 190.941 44.5413 190.941 45C190.941 45.4533 191.045 45.8747 191.253 46.264C191.461 46.648 191.741 46.9573 192.093 47.192C192.45 47.4267 192.845 47.544 193.277 47.544C193.608 47.544 193.922 47.4693 194.221 47.32C194.52 47.1707 194.773 46.9733 194.981 46.728ZM201.23 49.208C200.494 49.208 199.822 49.0187 199.214 48.64C198.611 48.2613 198.129 47.7547 197.766 47.12C197.409 46.48 197.23 45.7733 197.23 45C197.23 44.4133 197.334 43.8667 197.542 43.36C197.75 42.848 198.035 42.4 198.398 42.016C198.766 41.6267 199.193 41.3227 199.678 41.104C200.163 40.8853 200.681 40.776 201.23 40.776C201.843 40.776 202.406 40.904 202.918 41.16C203.43 41.4107 203.867 41.76 204.23 42.208C204.593 42.6507 204.859 43.1627 205.03 43.744C205.201 44.32 205.251 44.9333 205.182 45.584H199.014C199.083 45.952 199.217 46.2853 199.414 46.584C199.617 46.8773 199.873 47.1093 200.182 47.28C200.497 47.4507 200.846 47.5387 201.23 47.544C201.635 47.544 202.003 47.4427 202.334 47.24C202.67 47.0373 202.945 46.7573 203.158 46.4L204.846 46.792C204.526 47.5013 204.043 48.0827 203.398 48.536C202.753 48.984 202.03 49.208 201.23 49.208ZM198.958 44.312H203.502C203.449 43.928 203.313 43.5813 203.094 43.272C202.881 42.9573 202.611 42.7093 202.286 42.528C201.966 42.3413 201.614 42.248 201.23 42.248C200.851 42.248 200.499 42.3387 200.174 42.52C199.854 42.7013 199.587 42.9493 199.374 43.264C199.166 43.5733 199.027 43.9227 198.958 44.312Z" fill="black"/>
</svg>
