<svg width="16" height="18" viewBox="0 0 16 18" fill="none" xmlns="http://www.w3.org/2000/svg">
<path d="M3.24456 12.4879L3.24433 12.4877C1.98336 11.2267 1.27496 9.51645 1.27496 7.73318C1.27496 5.9499 1.98336 4.23967 3.24433 2.9787C4.50529 1.71773 6.21553 1.00933 7.9988 1.00933C9.78208 1.00933 11.4923 1.71773 12.7533 2.9787C14.0087 4.23415 14.714 5.93689 14.714 7.71234C14.714 9.4878 14.0087 11.1905 12.7533 12.446L12.7528 12.4464L8.32782 16.8881L8.32727 16.8887C8.28208 16.9342 8.22832 16.9704 8.16908 16.9951C8.10984 17.0197 8.04631 17.0325 7.98213 17.0325C7.91796 17.0325 7.85442 17.0197 7.79519 16.9951C7.73595 16.9704 7.68219 16.9342 7.63699 16.8887L7.63622 16.8879L3.24456 12.4879ZM7.75274 15.5698L7.9988 15.817L8.24486 15.5698L12.0528 11.7453C12.0529 11.7452 12.0529 11.7451 12.053 11.745C12.8538 10.9434 13.399 9.92239 13.6196 8.81104C13.8403 7.69956 13.7265 6.54761 13.2926 5.50079C12.8588 4.45398 12.1243 3.5593 11.182 2.92985C10.2397 2.3004 9.13198 1.96444 7.9988 1.96444C6.86563 1.96444 5.75789 2.3004 4.81562 2.92985C3.87335 3.5593 3.13885 4.45398 2.70496 5.50079C2.27107 6.54761 2.15728 7.69957 2.37797 8.81104C2.59864 9.92239 3.1438 10.9434 3.94457 11.745C3.94466 11.7451 3.94474 11.7452 3.94483 11.7453L7.75274 15.5698ZM10.3338 5.45923L10.3338 5.45927L10.3381 5.46352C10.6411 5.76286 10.881 6.11992 11.0436 6.51357C11.2062 6.90706 11.2882 7.32913 11.2849 7.75486C11.2782 8.39376 11.083 9.01644 10.7237 9.54483C10.3644 10.0733 9.85707 10.4839 9.2653 10.7251C8.67353 10.9663 8.02371 11.0274 7.39736 10.9007C6.77108 10.774 6.19616 10.4652 5.7447 10.013C5.13685 9.40331 4.79552 8.57747 4.79552 7.71651C4.79552 6.85593 5.13655 6.03044 5.7439 5.4208C6.04696 5.121 6.40627 4.88402 6.80119 4.7235C7.19647 4.56283 7.61962 4.48191 8.04629 4.48541C8.47296 4.48891 8.89473 4.57675 9.28732 4.74388C9.67991 4.911 10.0356 5.15412 10.3338 5.45923ZM9.65451 9.3185L10.2365 8.72762H10.0546C10.2146 8.42026 10.3043 8.07764 10.3126 7.72469L10.3127 7.72469L10.3127 7.71726C10.3138 7.18676 10.1307 6.67233 9.79451 6.26193C9.45834 5.85153 8.99006 5.57064 8.46973 5.46729C7.94939 5.36394 7.40931 5.44454 6.94182 5.69531C6.47433 5.94609 6.10847 6.35146 5.90678 6.84213C5.7051 7.3328 5.68011 7.87829 5.8361 8.38534C5.99209 8.89239 6.31936 9.32952 6.76197 9.62197C7.20458 9.91443 7.73503 10.0441 8.26264 9.98871C8.79025 9.93336 9.28224 9.69645 9.65451 9.3185Z" fill="#031569" stroke="#747474" stroke-width="0.694444"/>
</svg>
