<svg width="18" height="21" viewBox="0 0 18 21" fill="none" xmlns="http://www.w3.org/2000/svg">
<path d="M15.1446 3.11337C13.5866 1.55542 11.4736 0.680176 9.27034 0.680176C7.06707 0.680176 4.95403 1.55542 3.39609 3.11337C1.83814 4.67132 0.962891 6.78435 0.962891 8.98762C0.962891 11.1909 1.83814 13.3039 3.39609 14.8619L8.55564 20.0312C8.64665 20.123 8.75493 20.1958 8.87424 20.2455C8.99355 20.2952 9.12151 20.3208 9.25076 20.3208C9.38 20.3208 9.50797 20.2952 9.62727 20.2455C9.74658 20.1958 9.85486 20.123 9.94588 20.0312L15.1446 14.8129C16.696 13.2615 17.5676 11.1572 17.5676 8.96315C17.5676 6.76906 16.696 4.66484 15.1446 3.11337ZM13.7446 13.4129L9.27034 17.9067L4.79612 13.4129C3.91218 12.5281 3.3104 11.4012 3.06683 10.1745C2.82326 8.94781 2.94885 7.67644 3.42771 6.5211C3.90658 5.36577 4.71722 4.37834 5.75717 3.68364C6.79712 2.98894 8.01969 2.61815 9.27034 2.61815C10.521 2.61815 11.7435 2.98894 12.7835 3.68364C13.8235 4.37834 14.6341 5.36577 15.113 6.5211C15.5918 7.67644 15.7174 8.94781 15.4738 10.1745C15.2303 11.4012 14.6285 12.5281 13.7446 13.4129ZM6.33321 5.98196C5.54285 6.77476 5.09903 7.84857 5.09903 8.96804C5.09903 10.0875 5.54285 11.1613 6.33321 11.9541C6.9204 12.5423 7.66822 12.944 8.48284 13.1088C9.29747 13.2736 10.1426 13.1942 10.9123 12.8804C11.6819 12.5667 12.3418 12.0327 12.8091 11.3454C13.2764 10.6581 13.5303 9.84807 13.539 9.01699C13.5434 8.46208 13.4365 7.91191 13.2246 7.39902C13.0127 6.88613 12.7001 6.42092 12.3054 6.03092C11.9173 5.63399 11.4547 5.31772 10.9439 5.1003C10.4332 4.88288 9.88453 4.76861 9.32947 4.76406C8.77441 4.75951 8.22394 4.86478 7.70972 5.07379C7.1955 5.28281 6.72769 5.59145 6.33321 5.98196ZM10.9249 10.5639C10.5539 10.9406 10.0636 11.1767 9.53774 11.2318C9.01191 11.287 8.48325 11.1578 8.04214 10.8663C7.60102 10.5749 7.27485 10.1392 7.11939 9.63387C6.96393 9.12853 6.98883 8.58488 7.18983 8.09587C7.39084 7.60685 7.75547 7.20284 8.22138 6.95292C8.68729 6.70299 9.22555 6.62266 9.74413 6.72566C10.2627 6.82866 10.7294 7.1086 11.0644 7.51762C11.3995 7.92664 11.582 8.43933 11.5809 8.96804C11.5666 9.57238 11.3131 10.1463 10.876 10.5639H10.9249Z" fill="#031569"/>
</svg>
