<svg width="549" height="537" viewBox="0 0 549 537" fill="none" xmlns="http://www.w3.org/2000/svg">
<path d="M277.509 348.78C384.591 348.78 471.399 343.712 471.399 337.46C471.399 331.208 384.591 326.14 277.509 326.14C170.426 326.14 83.6191 331.208 83.6191 337.46C83.6191 343.712 170.426 348.78 277.509 348.78Z" fill="#F5F5F5"/>
<path d="M296.509 257.59H265.709C252.499 257.59 241.799 274.92 241.799 296.3C241.799 317.68 252.499 335.01 265.709 335.01H296.509C309.719 335.01 320.429 317.68 320.429 296.3C320.429 274.92 309.699 257.59 296.509 257.59Z" fill="#031569"/>
<path opacity="0.2" d="M296.509 257.59H265.709C252.499 257.59 241.799 274.92 241.799 296.3C241.799 317.68 252.499 335.01 265.709 335.01H296.509C309.719 335.01 320.429 317.68 320.429 296.3C320.429 274.92 309.699 257.59 296.509 257.59Z" fill="black"/>
<path d="M157.449 257.59H126.649C113.439 257.59 102.739 274.92 102.739 296.3C102.739 317.68 113.439 335.01 126.649 335.01H157.449C170.659 335.01 181.369 317.68 181.369 296.3C181.369 274.92 170.659 257.59 157.449 257.59Z" fill="#031569"/>
<path opacity="0.2" d="M157.449 257.59H126.649C113.439 257.59 102.739 274.92 102.739 296.3C102.739 317.68 113.439 335.01 126.649 335.01H157.449C170.659 335.01 181.369 317.68 181.369 296.3C181.369 274.92 170.659 257.59 157.449 257.59Z" fill="black"/>
<path d="M451.419 228.22L458.419 234.22C460.048 235.619 461.261 237.44 461.924 239.482C462.587 241.525 462.675 243.711 462.179 245.8L460.579 252.55L451.419 228.22Z" fill="#031569"/>
<path d="M464.149 267.49C462.938 254.284 459.482 241.382 453.929 229.34L451.509 224.15H393.219L423.449 311.15C434.084 308.494 443.937 303.353 452.199 296.15L452.899 295.55C456.86 292.096 459.945 287.752 461.901 282.874C463.857 277.996 464.627 272.724 464.149 267.49Z" fill="#031569"/>
<path opacity="0.5" d="M464.149 267.49C462.938 254.284 459.482 241.382 453.929 229.34L451.509 224.15H393.219L423.449 311.15C434.084 308.494 443.937 303.353 452.199 296.15L452.899 295.55C456.86 292.096 459.945 287.752 461.901 282.874C463.857 277.996 464.627 272.724 464.149 267.49Z" fill="white"/>
<path d="M386.749 335.01C373.539 335.01 362.829 317.68 362.829 296.3C362.829 274.92 373.539 257.59 386.749 257.59H417.439V335.01H386.749Z" fill="#031569"/>
<path d="M417.549 335.01C430.76 335.01 441.469 317.679 441.469 296.3C441.469 274.921 430.76 257.59 417.549 257.59C404.338 257.59 393.629 274.921 393.629 296.3C393.629 317.679 404.338 335.01 417.549 335.01Z" fill="#031569"/>
<path opacity="0.2" d="M417.549 320.78C426.816 320.78 434.329 309.82 434.329 296.3C434.329 282.78 426.816 271.82 417.549 271.82C408.282 271.82 400.769 282.78 400.769 296.3C400.769 309.82 408.282 320.78 417.549 320.78Z" fill="black"/>
<path d="M212.149 311.15L154.629 218.84C154.629 218.84 200.139 172.84 299.539 172.84C385.599 172.84 437.139 201.26 451.539 224.16L417.439 257.6C384.439 257.6 384.619 292.6 380.089 307.35C379.745 308.461 379.053 309.431 378.114 310.117C377.176 310.803 376.042 311.169 374.879 311.16H212.149" fill="#031569"/>
<path opacity="0.5" d="M212.149 311.15L154.629 218.84C154.629 218.84 200.139 172.84 299.539 172.84C385.599 172.84 437.139 201.26 451.539 224.16L417.439 257.6C384.439 257.6 384.619 292.6 380.089 307.35C379.745 308.461 379.053 309.431 378.114 310.117C377.176 310.803 376.042 311.169 374.879 311.16H212.149" fill="white"/>
<path d="M247.709 335.01C234.499 335.01 223.789 317.68 223.789 296.3C223.789 274.92 234.509 257.59 247.709 257.59H278.399V335.01H247.709Z" fill="#031569"/>
<path d="M278.509 335.01C291.72 335.01 302.429 317.679 302.429 296.3C302.429 274.921 291.72 257.59 278.509 257.59C265.298 257.59 254.589 274.921 254.589 296.3C254.589 317.679 265.298 335.01 278.509 335.01Z" fill="#031569"/>
<path opacity="0.2" d="M278.509 320.78C287.776 320.78 295.289 309.82 295.289 296.3C295.289 282.78 287.776 271.82 278.509 271.82C269.242 271.82 261.729 282.78 261.729 296.3C261.729 309.82 269.242 320.78 278.509 320.78Z" fill="black"/>
<path d="M236.399 303.53C239.329 286.23 256.579 257.59 278.399 257.59L299.509 218.84H154.629C145.389 218.84 102.189 234.45 86.4592 250.18C75.4592 261.18 74.3092 272.27 73.0092 300.47C72.7492 306.22 78.0392 311.22 84.3992 311.22C137.859 311.22 202.559 311.43 226.109 311.5C231.309 311.47 235.619 308.16 236.399 303.53Z" fill="#031569"/>
<path opacity="0.5" d="M236.399 303.53C239.329 286.23 256.579 257.59 278.399 257.59L299.509 218.84H154.629C145.389 218.84 102.189 234.45 86.4592 250.18C75.4592 261.18 74.3092 272.27 73.0092 300.47C72.7492 306.22 78.0392 311.22 84.3992 311.22C137.859 311.22 202.559 311.43 226.109 311.5C231.309 311.47 235.619 308.16 236.399 303.53Z" fill="white"/>
<path opacity="0.3" d="M299.509 172.83C200.719 172.83 155.639 218.13 154.619 218.83H254.559C254.559 218.83 297.559 181.68 326.029 173.77C317.609 173.157 308.769 172.843 299.509 172.83Z" fill="#031569"/>
<path opacity="0.7" d="M175.929 258.38C189.639 253.18 231.049 238.59 242.339 242.38C253.629 246.17 226.289 259.71 219.399 261.51C212.509 263.31 207.999 259.7 197.689 264.69C187.379 269.68 159.319 264.66 175.929 258.38Z" fill="#031569"/>
<path opacity="0.2" d="M345.769 311.67C345.662 311.67 345.558 311.638 345.469 311.58C345.355 311.501 345.276 311.38 345.25 311.244C345.223 311.107 345.252 310.966 345.329 310.85C345.539 310.55 365.799 280.04 365.799 218.85C365.799 218.709 365.855 218.575 365.954 218.475C366.054 218.376 366.188 218.32 366.329 218.32C366.398 218.32 366.467 218.334 366.53 218.36C366.594 218.387 366.652 218.426 366.7 218.476C366.749 218.525 366.787 218.584 366.812 218.648C366.838 218.712 366.85 218.781 366.849 218.85C366.849 280.41 346.409 311.15 346.199 311.45C346.151 311.519 346.087 311.576 346.012 311.614C345.937 311.652 345.853 311.672 345.769 311.67Z" fill="#031569"/>
<path opacity="0.2" d="M126.249 264.44H126.139L98.6092 258.1C98.5346 258.094 98.4623 258.071 98.3972 258.034C98.3321 257.997 98.2758 257.947 98.232 257.886C98.1883 257.825 98.1581 257.756 98.1436 257.682C98.1292 257.609 98.1307 257.533 98.1482 257.461C98.1657 257.388 98.1986 257.32 98.2448 257.261C98.291 257.202 98.3494 257.154 98.416 257.12C98.4825 257.085 98.5557 257.066 98.6304 257.062C98.7052 257.059 98.7798 257.072 98.8491 257.1L126.279 263.4L171.649 258.22C171.723 258.191 171.802 258.18 171.881 258.186C171.96 258.193 172.037 258.218 172.105 258.259C172.173 258.299 172.231 258.355 172.274 258.422C172.317 258.488 172.344 258.564 172.354 258.643C172.363 258.721 172.355 258.801 172.329 258.876C172.302 258.951 172.259 259.019 172.203 259.075C172.146 259.13 172.078 259.172 172.003 259.198C171.928 259.223 171.848 259.23 171.769 259.22L126.309 264.44H126.249Z" fill="#031569"/>
<path opacity="0.2" d="M417.438 258.12C417.367 258.121 417.297 258.108 417.231 258.08C417.166 258.053 417.107 258.012 417.058 257.96C417.009 257.911 416.97 257.852 416.943 257.788C416.916 257.724 416.903 257.655 416.903 257.585C416.903 257.515 416.916 257.446 416.943 257.382C416.97 257.318 417.009 257.259 417.058 257.21C426.668 247.78 431.798 225.76 431.798 213.49C431.797 213.421 431.809 213.352 431.835 213.288C431.86 213.224 431.898 213.165 431.947 213.116C431.995 213.066 432.053 213.027 432.117 213.001C432.18 212.974 432.249 212.96 432.318 212.96C432.459 212.96 432.593 213.016 432.693 213.115C432.792 213.215 432.848 213.349 432.848 213.49C432.848 225.95 427.618 248.34 417.798 257.97C417.7 258.062 417.572 258.116 417.438 258.12Z" fill="#031569"/>
<path d="M339.969 229.36H353.679C354.19 229.357 354.679 229.153 355.041 228.792C355.402 228.43 355.606 227.941 355.609 227.43C355.606 226.919 355.402 226.43 355.041 226.068C354.679 225.707 354.19 225.503 353.679 225.5H339.969C339.458 225.503 338.969 225.707 338.607 226.068C338.246 226.43 338.042 226.919 338.039 227.43C338.042 227.941 338.246 228.43 338.607 228.792C338.969 229.153 339.458 229.357 339.969 229.36Z" fill="#031569"/>
<path d="M400.118 229.36H413.818C414.331 229.36 414.823 229.157 415.186 228.795C415.55 228.434 415.755 227.943 415.758 227.43C415.755 226.917 415.55 226.426 415.186 226.065C414.823 225.703 414.331 225.5 413.818 225.5H400.118C399.607 225.503 399.118 225.707 398.756 226.068C398.395 226.43 398.191 226.919 398.188 227.43C398.191 227.941 398.395 228.43 398.756 228.792C399.118 229.153 399.607 229.357 400.118 229.36Z" fill="#031569"/>
<path opacity="0.7" d="M97.7483 258.89C94.9283 257.17 90.2983 254.45 85.0583 251.66C82.1913 254.691 79.8945 258.214 78.2783 262.06C80.3515 262.539 82.2834 263.498 83.9183 264.86C90.5983 270 108.508 265.45 97.7483 258.89Z" fill="#031569"/>
<path opacity="0.3" d="M272.269 218.84H411.949C419.09 218.841 426.11 216.999 432.329 213.49C432.329 213.49 409.729 192.95 364.219 184.1C345.519 180.46 327.789 179.05 322.339 179.4C309.339 186.22 289.429 200.66 272.269 218.84Z" fill="#031569"/>
<path d="M188.509 304.74H89.1691C88.6343 304.742 88.1105 304.589 87.6607 304.299C87.211 304.01 86.8547 303.597 86.6348 303.109C86.4148 302.622 86.3407 302.081 86.4213 301.552C86.5019 301.024 86.7339 300.53 87.0891 300.13L89.6591 297.23C89.9208 296.937 90.2414 296.703 90.5998 296.543C90.9583 296.383 91.3465 296.3 91.7391 296.3H185.919C186.31 296.3 186.697 296.383 187.054 296.543C187.41 296.704 187.729 296.938 187.989 297.23L190.559 300.13C190.913 300.528 191.144 301.019 191.226 301.545C191.307 302.071 191.236 302.609 191.02 303.096C190.803 303.582 190.451 303.996 190.006 304.287C189.561 304.579 189.041 304.736 188.509 304.74Z" fill="#031569"/>
<path d="M449.009 258.54L442.759 259.74V242.79L449.009 243.99C449.859 244.16 450.499 245.3 450.499 246.66V255.87C450.509 257.22 449.859 258.37 449.009 258.54Z" fill="#031569"/>
<path d="M343.599 342.67C338.599 342.67 335.889 341.43 335.889 339.19C335.889 337.28 338.019 335.87 342.409 334.89C348.303 333.788 354.295 333.299 360.289 333.43H440.509C445.389 333.43 449.049 332.01 451.719 329.08C458.949 321.17 457.329 303.35 456.149 290.35C455.749 285.93 455.369 281.75 455.369 278.5C455.439 274.169 455.84 269.85 456.569 265.58C457.319 260.53 457.909 256.58 456.299 254.67C455.239 253.44 453.029 252.85 449.529 252.85V249.68C454.069 249.68 456.979 250.61 458.689 252.6C461.259 255.6 460.569 260.2 459.689 266.04C458.978 270.157 458.584 274.323 458.509 278.5C458.509 281.61 458.879 285.71 459.279 290.06C460.579 304.41 462.199 322.27 454.039 331.22C450.779 334.78 446.219 336.59 440.489 336.59H360.289C347.339 336.59 341.579 338.11 339.669 339.06C340.951 339.396 342.274 339.548 343.599 339.51V342.67Z" fill="#031569"/>
<path d="M449.509 245.77V256.77C450.968 256.77 452.367 256.191 453.398 255.159C454.43 254.128 455.009 252.729 455.009 251.27C455.009 249.811 454.43 248.412 453.398 247.381C452.367 246.35 450.968 245.77 449.509 245.77Z" fill="#031569"/>
<path d="M402.309 87.11H360.289V339.72H402.309V87.11Z" fill="#263238"/>
<path d="M413.849 84H363.889V87.11H413.849V84Z" fill="#263238"/>
<path opacity="0.4" d="M413.848 84H402.318V87.11H413.848V84Z" fill="black"/>
<path d="M388.229 109.49H381.159L387.339 99.71H379.569L374.379 113.54H380.829L376.899 126.03L388.229 109.49Z" fill="white"/>
<path opacity="0.5" d="M387.547 252.97C390.996 249.521 390.996 243.931 387.547 240.482C384.099 237.034 378.508 237.034 375.06 240.482C371.612 243.931 371.612 249.521 375.06 252.97C378.508 256.418 384.099 256.418 387.547 252.97Z" fill="#031569"/>
<path d="M343.599 342.67C343.18 342.67 342.778 342.504 342.482 342.207C342.185 341.911 342.019 341.509 342.019 341.09C342.019 340.671 342.185 340.269 342.482 339.973C342.778 339.676 343.18 339.51 343.599 339.51C348.689 339.51 352.199 338.25 354.339 335.66C359.259 329.71 356.809 316.91 354.219 303.35C352.499 294.35 350.719 285.04 350.719 276.35C350.719 256.21 361.579 245.11 381.299 245.11C381.518 245.093 381.738 245.121 381.945 245.192C382.152 245.264 382.343 245.378 382.504 245.527C382.665 245.676 382.794 245.857 382.882 246.058C382.97 246.259 383.015 246.476 383.015 246.695C383.015 246.914 382.97 247.131 382.882 247.332C382.794 247.533 382.665 247.714 382.504 247.863C382.343 248.012 382.152 248.126 381.945 248.198C381.738 248.269 381.518 248.297 381.299 248.28C368.789 248.28 353.879 253.15 353.879 276.35C353.879 284.7 355.629 293.86 357.319 302.72C360.059 317.03 362.639 330.54 356.779 337.63C353.999 341.03 349.689 342.67 343.599 342.67Z" fill="#031569"/>
<path opacity="0.5" d="M397.079 167.23H365.539V230.97H397.079V167.23Z" fill="#031569"/>
<path opacity="0.5" d="M365.528 167.23V230.97L376.828 176.1L365.528 167.23Z" fill="#031569"/>
<path d="M391.089 188.72L391.729 185.61H383.119L382.479 188.72H379.149L373.049 218.34H388.399L394.499 188.72H391.089Z" fill="#031569"/>
<path opacity="0.4" d="M390.289 199.22L387.149 214.48C387.043 215.003 386.758 215.473 386.345 215.811C385.931 216.148 385.413 216.332 384.879 216.33H377.219C377.011 216.332 376.805 216.287 376.617 216.198C376.429 216.11 376.263 215.98 376.131 215.819C376 215.657 375.906 215.469 375.857 215.266C375.808 215.064 375.806 214.854 375.849 214.65L378.989 199.39C379.095 198.867 379.379 198.397 379.793 198.059C380.207 197.722 380.725 197.539 381.259 197.54H388.919C389.127 197.539 389.333 197.584 389.521 197.672C389.709 197.761 389.875 197.89 390.007 198.052C390.138 198.213 390.232 198.402 390.281 198.604C390.33 198.806 390.332 199.017 390.289 199.22Z" fill="white"/>
<path opacity="0.4" d="M365.528 167.23L397.068 167.22V176.1H376.828L365.528 167.23Z" fill="#263238"/>
<path d="M402.309 339.72H417.429V87.11H402.309V339.72Z" fill="#263238"/>
<path opacity="0.4" d="M402.309 339.72H417.429V87.11H402.309V339.72Z" fill="black"/>
<path d="M135.544 434.78V406.78H141.504L152.424 424.8V406.78H157.944V434.78H151.984L141.064 416.76V434.78H135.544Z" fill="#031569"/>
<path d="M171.141 435.3C169.301 435.3 167.621 434.827 166.101 433.88C164.594 432.933 163.387 431.667 162.481 430.08C161.587 428.48 161.141 426.713 161.141 424.78C161.141 423.313 161.401 421.947 161.921 420.68C162.441 419.4 163.154 418.28 164.061 417.32C164.981 416.347 166.047 415.587 167.261 415.04C168.474 414.493 169.767 414.22 171.141 414.22C172.981 414.22 174.654 414.693 176.161 415.64C177.681 416.587 178.887 417.86 179.781 419.46C180.687 421.06 181.141 422.833 181.141 424.78C181.141 426.233 180.881 427.593 180.361 428.86C179.841 430.127 179.121 431.247 178.201 432.22C177.294 433.18 176.234 433.933 175.021 434.48C173.821 435.027 172.527 435.3 171.141 435.3ZM171.141 429.78C171.994 429.78 172.761 429.553 173.441 429.1C174.121 428.633 174.654 428.02 175.041 427.26C175.427 426.5 175.621 425.673 175.621 424.78C175.621 423.86 175.414 423.02 175.001 422.26C174.601 421.487 174.061 420.873 173.381 420.42C172.701 419.967 171.954 419.74 171.141 419.74C170.301 419.74 169.541 419.973 168.861 420.44C168.181 420.907 167.641 421.52 167.241 422.28C166.854 423.04 166.661 423.873 166.661 424.78C166.661 425.727 166.861 426.58 167.261 427.34C167.674 428.087 168.221 428.68 168.901 429.12C169.581 429.56 170.327 429.78 171.141 429.78Z" fill="#031569"/>
<path d="M194.333 434.78V406.78H205.453C206.973 406.78 208.346 407.167 209.573 407.94C210.813 408.7 211.793 409.727 212.513 411.02C213.246 412.3 213.613 413.72 213.613 415.28C213.613 416.507 213.4 417.647 212.973 418.7C212.546 419.74 211.946 420.653 211.173 421.44C210.4 422.227 209.5 422.84 208.473 423.28L215.133 434.78H208.773L202.393 423.78H199.853V434.78H194.333ZM199.853 418.26H204.793C205.393 418.26 205.94 418.113 206.433 417.82C206.94 417.513 207.34 417.107 207.633 416.6C207.94 416.08 208.093 415.507 208.093 414.88C208.093 414.267 207.94 413.707 207.633 413.2C207.34 412.68 206.94 412.267 206.433 411.96C205.94 411.653 205.393 411.5 204.793 411.5H199.853V418.26Z" fill="#031569"/>
<path d="M218.122 414.78H223.642V434.78H218.122V414.78ZM220.922 412.48C220.122 412.48 219.449 412.213 218.902 411.68C218.355 411.147 218.082 410.487 218.082 409.7C218.082 408.913 218.355 408.253 218.902 407.72C219.449 407.187 220.115 406.92 220.902 406.92C221.689 406.92 222.349 407.187 222.882 407.72C223.429 408.253 223.702 408.913 223.702 409.7C223.702 410.487 223.435 411.147 222.902 411.68C222.382 412.213 221.722 412.48 220.922 412.48Z" fill="#031569"/>
<path d="M242.588 404.78H248.108V434.78H242.588V432.66C241.974 433.433 241.214 434.067 240.308 434.56C239.401 435.053 238.368 435.3 237.208 435.3C235.754 435.3 234.394 435.027 233.128 434.48C231.861 433.933 230.741 433.18 229.768 432.22C228.808 431.247 228.054 430.127 227.508 428.86C226.961 427.593 226.688 426.233 226.688 424.78C226.688 423.327 226.961 421.967 227.508 420.7C228.054 419.433 228.808 418.32 229.768 417.36C230.741 416.387 231.861 415.627 233.128 415.08C234.394 414.533 235.754 414.26 237.208 414.26C238.368 414.26 239.401 414.507 240.308 415C241.214 415.48 241.974 416.113 242.588 416.9V404.78ZM237.288 430C238.194 430 239.014 429.767 239.748 429.3C240.481 428.833 241.061 428.207 241.488 427.42C241.914 426.62 242.128 425.74 242.128 424.78C242.128 423.807 241.914 422.927 241.488 422.14C241.061 421.353 240.481 420.727 239.748 420.26C239.014 419.793 238.194 419.56 237.288 419.56C236.368 419.56 235.534 419.793 234.788 420.26C234.041 420.727 233.448 421.36 233.008 422.16C232.568 422.947 232.348 423.82 232.348 424.78C232.348 425.74 232.568 426.62 233.008 427.42C233.461 428.207 234.061 428.833 234.808 429.3C235.554 429.767 236.381 430 237.288 430Z" fill="#031569"/>
<path d="M261.336 435.3C259.496 435.3 257.816 434.827 256.296 433.88C254.789 432.933 253.583 431.66 252.676 430.06C251.783 428.46 251.336 426.693 251.336 424.76C251.336 423.307 251.596 421.947 252.116 420.68C252.636 419.4 253.349 418.28 254.256 417.32C255.176 416.347 256.243 415.587 257.456 415.04C258.669 414.493 259.963 414.22 261.336 414.22C262.923 414.22 264.369 414.56 265.676 415.24C266.996 415.92 268.109 416.847 269.016 418.02C269.936 419.193 270.589 420.52 270.976 422C271.376 423.48 271.443 425.02 271.176 426.62H257.296C257.469 427.207 257.736 427.74 258.096 428.22C258.469 428.687 258.923 429.06 259.456 429.34C260.003 429.62 260.629 429.767 261.336 429.78C262.029 429.793 262.669 429.633 263.256 429.3C263.843 428.967 264.343 428.52 264.756 427.96L270.396 429.26C269.583 431.033 268.369 432.487 266.756 433.62C265.143 434.74 263.336 435.3 261.336 435.3ZM257.096 422.54H265.596C265.423 421.873 265.129 421.273 264.716 420.74C264.303 420.207 263.803 419.787 263.216 419.48C262.643 419.173 262.016 419.02 261.336 419.02C260.669 419.02 260.043 419.173 259.456 419.48C258.883 419.787 258.389 420.207 257.976 420.74C257.576 421.26 257.283 421.86 257.096 422.54Z" fill="#031569"/>
<path d="M300.688 406.78H306.208V434.78H300.688V422.54H290.048V434.78H284.528V406.78H290.048V417.02H300.688V406.78Z" fill="#031569"/>
<path d="M311.013 414.78H316.533V434.78H311.013V414.78ZM313.813 412.48C313.013 412.48 312.339 412.213 311.793 411.68C311.246 411.147 310.973 410.487 310.973 409.7C310.973 408.913 311.246 408.253 311.793 407.72C312.339 407.187 313.006 406.92 313.793 406.92C314.579 406.92 315.239 407.187 315.773 407.72C316.319 408.253 316.593 408.913 316.593 409.7C316.593 410.487 316.326 411.147 315.793 411.68C315.273 412.213 314.613 412.48 313.813 412.48Z" fill="#031569"/>
<path d="M326.755 435.14C325.728 435.06 324.741 434.847 323.795 434.5C322.848 434.14 322.001 433.66 321.255 433.06C320.521 432.447 319.948 431.713 319.535 430.86L324.175 428.86C324.321 429.073 324.541 429.307 324.835 429.56C325.128 429.8 325.481 430.013 325.895 430.2C326.321 430.387 326.815 430.48 327.375 430.48C327.788 430.48 328.188 430.433 328.575 430.34C328.961 430.233 329.275 430.067 329.515 429.84C329.755 429.6 329.875 429.287 329.875 428.9C329.875 428.473 329.721 428.147 329.415 427.92C329.108 427.693 328.735 427.527 328.295 427.42C327.868 427.3 327.455 427.2 327.055 427.12C325.828 426.907 324.668 426.527 323.575 425.98C322.495 425.42 321.615 424.7 320.935 423.82C320.255 422.94 319.915 421.887 319.915 420.66C319.915 419.313 320.268 418.153 320.975 417.18C321.681 416.193 322.601 415.433 323.735 414.9C324.868 414.367 326.095 414.1 327.415 414.1C328.975 414.1 330.421 414.427 331.755 415.08C333.088 415.733 334.161 416.653 334.975 417.84L330.615 420.42C330.441 420.167 330.215 419.927 329.935 419.7C329.668 419.46 329.355 419.26 328.995 419.1C328.648 418.927 328.275 418.827 327.875 418.8C327.355 418.76 326.881 418.793 326.455 418.9C326.028 418.993 325.688 419.173 325.435 419.44C325.195 419.707 325.075 420.067 325.075 420.52C325.075 420.96 325.268 421.287 325.655 421.5C326.041 421.7 326.488 421.853 326.995 421.96C327.501 422.053 327.948 422.167 328.335 422.3C329.495 422.673 330.581 423.153 331.595 423.74C332.621 424.313 333.448 425.02 334.075 425.86C334.701 426.7 334.995 427.687 334.955 428.82C334.955 430.14 334.561 431.3 333.775 432.3C332.988 433.287 331.968 434.04 330.715 434.56C329.475 435.067 328.155 435.26 326.755 435.14Z" fill="#031569"/>
<path d="M349.236 420.3H345.636V434.78H340.116V420.3H337.356V414.78H340.116V408.5H345.636V414.78H349.236V420.3Z" fill="#031569"/>
<path d="M361.219 435.3C359.379 435.3 357.699 434.827 356.179 433.88C354.672 432.933 353.466 431.667 352.559 430.08C351.666 428.48 351.219 426.713 351.219 424.78C351.219 423.313 351.479 421.947 351.999 420.68C352.519 419.4 353.232 418.28 354.139 417.32C355.059 416.347 356.126 415.587 357.339 415.04C358.552 414.493 359.846 414.22 361.219 414.22C363.059 414.22 364.732 414.693 366.239 415.64C367.759 416.587 368.966 417.86 369.859 419.46C370.766 421.06 371.219 422.833 371.219 424.78C371.219 426.233 370.959 427.593 370.439 428.86C369.919 430.127 369.199 431.247 368.279 432.22C367.372 433.18 366.312 433.933 365.099 434.48C363.899 435.027 362.606 435.3 361.219 435.3ZM361.219 429.78C362.072 429.78 362.839 429.553 363.519 429.1C364.199 428.633 364.732 428.02 365.119 427.26C365.506 426.5 365.699 425.673 365.699 424.78C365.699 423.86 365.492 423.02 365.079 422.26C364.679 421.487 364.139 420.873 363.459 420.42C362.779 419.967 362.032 419.74 361.219 419.74C360.379 419.74 359.619 419.973 358.939 420.44C358.259 420.907 357.719 421.52 357.319 422.28C356.932 423.04 356.739 423.873 356.739 424.78C356.739 425.727 356.939 426.58 357.339 427.34C357.752 428.087 358.299 428.68 358.979 429.12C359.659 429.56 360.406 429.78 361.219 429.78Z" fill="#031569"/>
<path d="M374.275 434.78L374.255 414.78H379.775L379.795 416.26C380.462 415.62 381.242 415.12 382.135 414.76C383.042 414.4 383.995 414.22 384.995 414.22C385.728 414.22 386.462 414.327 387.195 414.54L385.015 420.12C384.535 419.92 384.048 419.82 383.555 419.82C382.862 419.82 382.228 419.987 381.655 420.32C381.082 420.653 380.628 421.107 380.295 421.68C379.962 422.24 379.795 422.873 379.795 423.58V434.78H374.275Z" fill="#031569"/>
<path d="M402.975 414.78H408.855L397.895 444.78H392.055L395.655 434.78L388.455 414.78H394.495L398.415 427.24L402.975 414.78Z" fill="#031569"/>
</svg>
