<svg width="19" height="16" viewBox="0 0 19 16" fill="none" xmlns="http://www.w3.org/2000/svg">
<path d="M0.333984 14.25L0.750651 14.2504C0.751801 13.0498 1.09869 11.875 1.74985 10.8664C2.40101 9.8578 3.32889 9.05808 4.42253 8.56286L5.01556 8.29432L4.52335 7.86826C4.12389 7.52248 3.80349 7.09482 3.58389 6.61429C3.3643 6.13377 3.25065 5.61162 3.25065 5.0833C3.25065 4.08873 3.64574 3.1349 4.349 2.43164C5.05226 1.72838 6.00609 1.33329 7.00065 1.33329C7.99521 1.33329 8.94904 1.72838 9.6523 2.43164C10.3556 3.1349 10.7507 4.08873 10.7507 5.08329C10.7507 5.61162 10.637 6.13377 10.4174 6.61429C10.1978 7.09482 9.87741 7.52248 9.47795 7.86826L8.98574 8.29432L9.57878 8.56286C10.6724 9.05808 11.6003 9.8578 12.2514 10.8664C12.9025 11.8749 13.2494 13.0496 13.2507 14.25C13.2507 14.3605 13.2068 14.4664 13.1286 14.5446C13.0505 14.6227 12.9445 14.6666 12.834 14.6666C12.7235 14.6666 12.6175 14.6227 12.5394 14.5446C12.4612 14.4664 12.4173 14.3605 12.4173 14.25C12.4173 12.8134 11.8466 11.4356 10.8308 10.4198C9.81499 9.40398 8.43724 8.83329 7.00065 8.83329C5.56406 8.83329 4.18631 9.40398 3.17049 10.4198C2.15467 11.4356 1.58398 12.8134 1.58398 14.25C1.58398 14.3605 1.54009 14.4664 1.46195 14.5446C1.38381 14.6227 1.27783 14.6666 1.16732 14.6666C1.05681 14.6666 0.950829 14.6227 0.87269 14.5446C0.79455 14.4664 0.750651 14.3605 0.750651 14.25H0.333984ZM0.333984 14.25C0.333984 14.471 0.421782 14.6829 0.578062 14.8392C0.734342 14.9955 0.946304 15.0833 1.16732 15.0833C1.38833 15.0833 1.60029 14.9955 1.75657 14.8392C1.91285 14.6829 2.00065 14.471 2.00065 14.25C2.00065 12.9239 2.52744 11.6521 3.46512 10.7144C4.4028 9.77674 5.67457 9.24996 7.00065 9.24996C8.32673 9.24996 9.5985 9.77674 10.5362 10.7144C11.4739 11.6521 12.0007 12.9239 12.0007 14.25C12.0007 14.471 12.0884 14.6829 12.2447 14.8392C12.401 14.9955 12.613 15.0833 12.834 15.0833C13.055 15.0833 13.267 14.9955 13.4232 14.8392C13.5795 14.6829 13.6673 14.471 13.6673 14.25L10.0716 7.87334C10.369 7.55312 10.6139 7.18669 10.7964 6.78748C11.0408 6.25259 11.1673 5.67138 11.1673 5.08329C11.1673 3.97822 10.7283 2.91842 9.94693 2.13701C9.16553 1.35561 8.10572 0.916626 7.00065 0.916626C5.89558 0.916626 4.83577 1.35561 4.05437 2.13701C3.27297 2.91842 2.83398 3.97822 2.83398 5.08329C2.83398 5.67138 2.96049 6.25259 3.20492 6.78748C3.38736 7.18669 3.63229 7.55312 3.92967 7.87334C3.97906 7.84958 4.02877 7.82637 4.07878 7.80373L4.25065 8.18329L3.97795 8.49833C3.93405 8.46032 3.89092 8.42151 3.84858 8.38191C2.85651 8.91422 2.0131 9.69046 1.3998 10.6404C0.70523 11.7163 0.335211 12.9694 0.333984 14.25ZM9.42577 3.46288L9.07932 3.69437L9.42577 3.46288C9.10528 2.98324 8.64976 2.6094 8.11681 2.38864C7.58386 2.16789 6.99742 2.11013 6.43164 2.22267C5.86586 2.33521 5.34616 2.61299 4.93826 3.0209C4.53035 3.4288 4.25257 3.9485 4.14003 4.51428C4.02749 5.08006 4.08525 5.6665 4.306 6.19945C4.52676 6.7324 4.90059 7.18792 5.38024 7.50841C5.85988 7.8289 6.42379 7.99996 7.00065 7.99996C7.7742 7.99996 8.51606 7.69267 9.06305 7.14569C9.61003 6.59871 9.91732 5.85684 9.91732 5.08329C9.91732 4.50643 9.74626 3.94252 9.42577 3.46288ZM14.8058 7.57329L14.4784 7.94198L14.8965 8.20329C15.9207 8.8434 16.7642 9.73477 17.3469 10.7927C17.9296 11.8506 18.2321 13.04 18.2257 14.2477V14.25C18.2257 14.3605 18.1818 14.4664 18.1036 14.5446C18.0255 14.6227 17.9195 14.6666 17.809 14.6666C17.6985 14.6666 17.5925 14.6227 17.5144 14.5446C17.4366 14.4668 17.3927 14.3614 17.3923 14.2514C17.4014 13.0609 17.0702 11.8926 16.4378 10.8839C15.807 9.87773 14.9026 9.07218 13.8306 8.56147L13.7488 8.5174L13.4401 8.3116L13.4401 8.3116L13.438 8.31022C13.3789 8.27133 13.3307 8.21802 13.2979 8.15533L12.9287 8.34851L13.2979 8.15533C13.2651 8.0927 13.2488 8.02277 13.2505 7.95211C13.2525 7.88097 13.2726 7.81151 13.309 7.75036C13.3455 7.68908 13.3971 7.63819 13.4588 7.60255L13.459 7.60247C13.9012 7.34715 14.2687 6.98019 14.5246 6.5383C14.7805 6.0964 14.9159 5.59506 14.9173 5.08441V5.08329C14.9173 4.30974 14.61 3.56788 14.063 3.0209C13.5161 2.47392 12.7742 2.16663 12.0007 2.16663C11.8901 2.16663 11.7842 2.12273 11.706 2.04459C11.6279 1.96645 11.584 1.86047 11.584 1.74996C11.584 1.63945 11.6279 1.53347 11.706 1.45533C11.7842 1.37719 11.8901 1.33329 12.0007 1.33329L12.0008 1.33329C12.7236 1.3331 13.4311 1.54183 14.0381 1.93436C14.6451 2.32689 15.1257 2.88649 15.4221 3.54579C15.7185 4.2051 15.818 4.93601 15.7086 5.65055C15.5993 6.36508 15.2857 7.03279 14.8058 7.57329Z" fill="#303030" stroke="#303030" stroke-width="0.833333"/>
</svg>
