<svg width="18" height="16" viewBox="0 0 18 16" fill="none" xmlns="http://www.w3.org/2000/svg">
<path d="M9.00034 10.7048C8.85201 10.7048 8.707 10.7488 8.58366 10.8312C8.46033 10.9136 8.3642 11.0307 8.30743 11.1678C8.25067 11.3048 8.23581 11.4556 8.26475 11.6011C8.29369 11.7466 8.36512 11.8802 8.47001 11.9851C8.5749 12.09 8.70854 12.1614 8.85402 12.1904C8.99951 12.2193 9.15031 12.2045 9.28735 12.1477C9.4244 12.0909 9.54153 11.9948 9.62394 11.8715C9.70636 11.7481 9.75034 11.6031 9.75034 11.4548C9.75034 11.2559 9.67132 11.0651 9.53067 10.9245C9.39002 10.7838 9.19925 10.7048 9.00034 10.7048ZM17.0028 11.8073L10.9653 1.30729C10.7702 0.95743 10.4852 0.666012 10.1397 0.463145C9.79429 0.260278 9.40095 0.15332 9.00034 0.15332C8.59973 0.15332 8.20639 0.260278 7.86095 0.463145C7.5155 0.666012 7.23049 0.95743 7.03534 1.30729L1.03534 11.8073C0.833439 12.1478 0.724949 12.5356 0.720825 12.9314C0.716702 13.3273 0.81709 13.7172 1.01186 14.0618C1.20662 14.4065 1.48887 14.6936 1.8301 14.8943C2.17134 15.095 2.55948 15.2021 2.95534 15.2048H15.0453C15.4444 15.2087 15.8373 15.1065 16.1838 14.9085C16.5303 14.7105 16.8179 14.4239 17.0171 14.0782C17.2163 13.7324 17.32 13.3399 17.3175 12.9408C17.315 12.5417 17.2064 12.1505 17.0028 11.8073ZM15.7053 13.3073C15.6396 13.4243 15.5437 13.5214 15.4276 13.5887C15.3115 13.656 15.1795 13.6909 15.0453 13.6898H2.95534C2.82117 13.6909 2.68917 13.656 2.57308 13.5887C2.45699 13.5214 2.36108 13.4243 2.29534 13.3073C2.22952 13.1933 2.19486 13.0639 2.19486 12.9323C2.19486 12.8006 2.22952 12.6713 2.29534 12.5573L8.29534 2.05729C8.35828 1.93444 8.4539 1.83134 8.57168 1.75935C8.68945 1.68736 8.82481 1.64926 8.96284 1.64926C9.10088 1.64926 9.23623 1.68736 9.35401 1.75935C9.47178 1.83134 9.5674 1.93444 9.63034 2.05729L15.6678 12.5573C15.7423 12.6697 15.785 12.8 15.7916 12.9346C15.7982 13.0693 15.7684 13.2032 15.7053 13.3223V13.3073ZM9.00034 4.70479C8.80143 4.70479 8.61066 4.78381 8.47001 4.92446C8.32936 5.06512 8.25034 5.25588 8.25034 5.45479V8.45479C8.25034 8.65371 8.32936 8.84447 8.47001 8.98512C8.61066 9.12578 8.80143 9.20479 9.00034 9.20479C9.19925 9.20479 9.39002 9.12578 9.53067 8.98512C9.67132 8.84447 9.75034 8.65371 9.75034 8.45479V5.45479C9.75034 5.25588 9.67132 5.06512 9.53067 4.92446C9.39002 4.78381 9.19925 4.70479 9.00034 4.70479Z" fill="#5F5F5F"/>
</svg>
