<svg width="20" height="20" viewBox="0 0 20 20" fill="none" xmlns="http://www.w3.org/2000/svg">
<path d="M9.43957 0C6.87596 0.00731219 4.41306 0.998914 2.55957 2.77V1C2.55957 0.734784 2.45421 0.48043 2.26668 0.292893C2.07914 0.105357 1.82479 0 1.55957 0C1.29435 0 1.04 0.105357 0.852463 0.292893C0.664927 0.48043 0.55957 0.734784 0.55957 1V5.5C0.55957 5.76522 0.664927 6.01957 0.852463 6.20711C1.04 6.39464 1.29435 6.5 1.55957 6.5H6.05957C6.32479 6.5 6.57914 6.39464 6.76668 6.20711C6.95421 6.01957 7.05957 5.76522 7.05957 5.5C7.05957 5.23478 6.95421 4.98043 6.76668 4.79289C6.57914 4.60536 6.32479 4.5 6.05957 4.5H3.65957C4.57128 3.53701 5.70808 2.81576 6.9677 2.40114C8.22732 1.98651 9.57026 1.89152 10.8757 2.1247C12.1812 2.35788 13.4082 2.91193 14.4463 3.73699C15.4845 4.56205 16.3013 5.63226 16.8233 6.85133C17.3452 8.0704 17.5559 9.4001 17.4365 10.7208C17.317 12.0415 16.8711 13.3118 16.1388 14.4174C15.4066 15.5231 14.411 16.4293 13.2416 17.0547C12.0722 17.68 10.7657 18.0049 9.43957 18C9.17435 18 8.92 18.1054 8.73246 18.2929C8.54493 18.4804 8.43957 18.7348 8.43957 19C8.43957 19.2652 8.54493 19.5196 8.73246 19.7071C8.92 19.8946 9.17435 20 9.43957 20C12.0917 20 14.6353 18.9464 16.5106 17.0711C18.386 15.1957 19.4396 12.6522 19.4396 10C19.4396 7.34784 18.386 4.8043 16.5106 2.92893C14.6353 1.05357 12.0917 0 9.43957 0ZM9.43957 6C9.17435 6 8.92 6.10536 8.73246 6.29289C8.54493 6.48043 8.43957 6.73478 8.43957 7V10C8.43957 10.2652 8.54493 10.5196 8.73246 10.7071C8.92 10.8946 9.17435 11 9.43957 11H11.4396C11.7048 11 11.9591 10.8946 12.1467 10.7071C12.3342 10.5196 12.4396 10.2652 12.4396 10C12.4396 9.73478 12.3342 9.48043 12.1467 9.29289C11.9591 9.10536 11.7048 9 11.4396 9H10.4396V7C10.4396 6.73478 10.3342 6.48043 10.1467 6.29289C9.95914 6.10536 9.70479 6 9.43957 6Z" fill="black"/>
</svg>
