<svg width="21" height="22" viewBox="0 0 21 22" fill="none" xmlns="http://www.w3.org/2000/svg">
<mask id="path-1-inside-1_501_1334" fill="white">
<path d="M18.9009 11.66C18.7406 11.4775 18.6521 11.2429 18.6521 11C18.6521 10.7571 18.7406 10.5225 18.9009 10.34L20.1809 8.90002C20.3219 8.74269 20.4095 8.54472 20.4311 8.33452C20.4526 8.12433 20.407 7.9127 20.3009 7.73002L18.3009 4.27002C18.1958 4.08754 18.0358 3.94289 17.8436 3.8567C17.6515 3.77051 17.437 3.74718 17.2309 3.79002L15.3509 4.17002C15.1117 4.21945 14.8626 4.17961 14.6508 4.05802C14.4389 3.93643 14.2789 3.7415 14.2009 3.51002L13.5909 1.68002C13.5238 1.4814 13.396 1.30888 13.2255 1.18686C13.055 1.06484 12.8505 0.999476 12.6409 1.00002H8.64087C8.42281 0.988635 8.20701 1.04894 8.02644 1.17173C7.84587 1.29452 7.71045 1.47304 7.64087 1.68002L7.08087 3.51002C7.00287 3.7415 6.84284 3.93643 6.63099 4.05802C6.41913 4.17961 6.17009 4.21945 5.93087 4.17002L4.00087 3.79002C3.80542 3.7624 3.60617 3.79324 3.42822 3.87866C3.25027 3.96407 3.10157 4.10025 3.00087 4.27002L1.00087 7.73002C0.892033 7.91067 0.843095 8.1211 0.861055 8.33124C0.879016 8.54138 0.962955 8.74046 1.10087 8.90002L2.37087 10.34C2.53119 10.5225 2.61961 10.7571 2.61961 11C2.61961 11.2429 2.53119 11.4775 2.37087 11.66L1.10087 13.1C0.962955 13.2596 0.879016 13.4587 0.861055 13.6688C0.843095 13.8789 0.892033 14.0894 1.00087 14.27L3.00087 17.73C3.10597 17.9125 3.26599 18.0571 3.45812 18.1433C3.65026 18.2295 3.8647 18.2529 4.07087 18.21L5.95087 17.83C6.19009 17.7806 6.43913 17.8204 6.65099 17.942C6.86284 18.0636 7.02287 18.2585 7.10087 18.49L7.71087 20.32C7.78045 20.527 7.91587 20.7055 8.09644 20.8283C8.27701 20.9511 8.49281 21.0114 8.71087 21H12.7109C12.9205 21.0006 13.125 20.9352 13.2955 20.8132C13.466 20.6912 13.5938 20.5186 13.6609 20.32L14.2709 18.49C14.3489 18.2585 14.5089 18.0636 14.7208 17.942C14.9326 17.8204 15.1817 17.7806 15.4209 17.83L17.3009 18.21C17.507 18.2529 17.7215 18.2295 17.9136 18.1433C18.1058 18.0571 18.2658 17.9125 18.3709 17.73L20.3709 14.27C20.477 14.0873 20.5226 13.8757 20.5011 13.6655C20.4795 13.4553 20.3919 13.2573 20.2509 13.1L18.9009 11.66ZM17.4109 13L18.2109 13.9L16.9309 16.12L15.7509 15.88C15.0307 15.7328 14.2814 15.8551 13.6455 16.2238C13.0095 16.5925 12.531 17.1819 12.3009 17.88L11.9209 19H9.36087L9.00087 17.86C8.77073 17.1619 8.29225 16.5725 7.65628 16.2038C7.0203 15.8351 6.27109 15.7128 5.55087 15.86L4.37087 16.1L3.07087 13.89L3.87087 12.99C4.36283 12.44 4.6348 11.7279 4.6348 10.99C4.6348 10.2521 4.36283 9.54004 3.87087 8.99002L3.07087 8.09002L4.35087 5.89002L5.53087 6.13002C6.25109 6.27724 7.0003 6.1549 7.63628 5.78622C8.27225 5.41753 8.75073 4.82818 8.98087 4.13002L9.36087 3.00002H11.9209L12.3009 4.14002C12.531 4.83818 13.0095 5.42753 13.6455 5.79622C14.2814 6.1649 15.0307 6.28724 15.7509 6.14002L16.9309 5.90002L18.2109 8.12002L17.4109 9.02002C16.9244 9.56878 16.6558 10.2767 16.6558 11.01C16.6558 11.7433 16.9244 12.4513 17.4109 13ZM10.6409 7.00002C9.84975 7.00002 9.07639 7.23461 8.41859 7.67414C7.76079 8.11366 7.24811 8.73838 6.94535 9.46928C6.6426 10.2002 6.56339 11.0045 6.71773 11.7804C6.87207 12.5563 7.25304 13.269 7.81245 13.8284C8.37186 14.3879 9.08459 14.7688 9.86051 14.9232C10.6364 15.0775 11.4407 14.9983 12.1716 14.6955C12.9025 14.3928 13.5272 13.8801 13.9668 13.2223C14.4063 12.5645 14.6409 11.7911 14.6409 11C14.6409 9.93915 14.2194 8.92174 13.4693 8.17159C12.7192 7.42144 11.7017 7.00002 10.6409 7.00002ZM10.6409 13C10.2453 13 9.85863 12.8827 9.52973 12.663C9.20083 12.4432 8.94449 12.1308 8.79311 11.7654C8.64174 11.3999 8.60213 10.9978 8.6793 10.6098C8.75647 10.2219 8.94695 9.86551 9.22666 9.5858C9.50636 9.3061 9.86273 9.11562 10.2507 9.03845C10.6387 8.96128 11.0408 9.00088 11.4062 9.15226C11.7717 9.30363 12.084 9.55998 12.3038 9.88888C12.5236 10.2178 12.6409 10.6045 12.6409 11C12.6409 11.5304 12.4302 12.0392 12.0551 12.4142C11.68 12.7893 11.1713 13 10.6409 13Z"/>
</mask>
<path d="M18.9009 11.66C18.7406 11.4775 18.6521 11.2429 18.6521 11C18.6521 10.7571 18.7406 10.5225 18.9009 10.34L20.1809 8.90002C20.3219 8.74269 20.4095 8.54472 20.4311 8.33452C20.4526 8.12433 20.407 7.9127 20.3009 7.73002L18.3009 4.27002C18.1958 4.08754 18.0358 3.94289 17.8436 3.8567C17.6515 3.77051 17.437 3.74718 17.2309 3.79002L15.3509 4.17002C15.1117 4.21945 14.8626 4.17961 14.6508 4.05802C14.4389 3.93643 14.2789 3.7415 14.2009 3.51002L13.5909 1.68002C13.5238 1.4814 13.396 1.30888 13.2255 1.18686C13.055 1.06484 12.8505 0.999476 12.6409 1.00002H8.64087C8.42281 0.988635 8.20701 1.04894 8.02644 1.17173C7.84587 1.29452 7.71045 1.47304 7.64087 1.68002L7.08087 3.51002C7.00287 3.7415 6.84284 3.93643 6.63099 4.05802C6.41913 4.17961 6.17009 4.21945 5.93087 4.17002L4.00087 3.79002C3.80542 3.7624 3.60617 3.79324 3.42822 3.87866C3.25027 3.96407 3.10157 4.10025 3.00087 4.27002L1.00087 7.73002C0.892033 7.91067 0.843095 8.1211 0.861055 8.33124C0.879016 8.54138 0.962955 8.74046 1.10087 8.90002L2.37087 10.34C2.53119 10.5225 2.61961 10.7571 2.61961 11C2.61961 11.2429 2.53119 11.4775 2.37087 11.66L1.10087 13.1C0.962955 13.2596 0.879016 13.4587 0.861055 13.6688C0.843095 13.8789 0.892033 14.0894 1.00087 14.27L3.00087 17.73C3.10597 17.9125 3.26599 18.0571 3.45812 18.1433C3.65026 18.2295 3.8647 18.2529 4.07087 18.21L5.95087 17.83C6.19009 17.7806 6.43913 17.8204 6.65099 17.942C6.86284 18.0636 7.02287 18.2585 7.10087 18.49L7.71087 20.32C7.78045 20.527 7.91587 20.7055 8.09644 20.8283C8.27701 20.9511 8.49281 21.0114 8.71087 21H12.7109C12.9205 21.0006 13.125 20.9352 13.2955 20.8132C13.466 20.6912 13.5938 20.5186 13.6609 20.32L14.2709 18.49C14.3489 18.2585 14.5089 18.0636 14.7208 17.942C14.9326 17.8204 15.1817 17.7806 15.4209 17.83L17.3009 18.21C17.507 18.2529 17.7215 18.2295 17.9136 18.1433C18.1058 18.0571 18.2658 17.9125 18.3709 17.73L20.3709 14.27C20.477 14.0873 20.5226 13.8757 20.5011 13.6655C20.4795 13.4553 20.3919 13.2573 20.2509 13.1L18.9009 11.66ZM17.4109 13L18.2109 13.9L16.9309 16.12L15.7509 15.88C15.0307 15.7328 14.2814 15.8551 13.6455 16.2238C13.0095 16.5925 12.531 17.1819 12.3009 17.88L11.9209 19H9.36087L9.00087 17.86C8.77073 17.1619 8.29225 16.5725 7.65628 16.2038C7.0203 15.8351 6.27109 15.7128 5.55087 15.86L4.37087 16.1L3.07087 13.89L3.87087 12.99C4.36283 12.44 4.6348 11.7279 4.6348 10.99C4.6348 10.2521 4.36283 9.54004 3.87087 8.99002L3.07087 8.09002L4.35087 5.89002L5.53087 6.13002C6.25109 6.27724 7.0003 6.1549 7.63628 5.78622C8.27225 5.41753 8.75073 4.82818 8.98087 4.13002L9.36087 3.00002H11.9209L12.3009 4.14002C12.531 4.83818 13.0095 5.42753 13.6455 5.79622C14.2814 6.1649 15.0307 6.28724 15.7509 6.14002L16.9309 5.90002L18.2109 8.12002L17.4109 9.02002C16.9244 9.56878 16.6558 10.2767 16.6558 11.01C16.6558 11.7433 16.9244 12.4513 17.4109 13ZM10.6409 7.00002C9.84975 7.00002 9.07639 7.23461 8.41859 7.67414C7.76079 8.11366 7.24811 8.73838 6.94535 9.46928C6.6426 10.2002 6.56339 11.0045 6.71773 11.7804C6.87207 12.5563 7.25304 13.269 7.81245 13.8284C8.37186 14.3879 9.08459 14.7688 9.86051 14.9232C10.6364 15.0775 11.4407 14.9983 12.1716 14.6955C12.9025 14.3928 13.5272 13.8801 13.9668 13.2223C14.4063 12.5645 14.6409 11.7911 14.6409 11C14.6409 9.93915 14.2194 8.92174 13.4693 8.17159C12.7192 7.42144 11.7017 7.00002 10.6409 7.00002ZM10.6409 13C10.2453 13 9.85863 12.8827 9.52973 12.663C9.20083 12.4432 8.94449 12.1308 8.79311 11.7654C8.64174 11.3999 8.60213 10.9978 8.6793 10.6098C8.75647 10.2219 8.94695 9.86551 9.22666 9.5858C9.50636 9.3061 9.86273 9.11562 10.2507 9.03845C10.6387 8.96128 11.0408 9.00088 11.4062 9.15226C11.7717 9.30363 12.084 9.55998 12.3038 9.88888C12.5236 10.2178 12.6409 10.6045 12.6409 11C12.6409 11.5304 12.4302 12.0392 12.0551 12.4142C11.68 12.7893 11.1713 13 10.6409 13Z" fill="black" stroke="#A3A3A3" stroke-width="2" mask="url(#path-1-inside-1_501_1334)"/>
</svg>
