<svg width="20" height="12" viewBox="0 0 20 12" fill="none" xmlns="http://www.w3.org/2000/svg">
<path d="M8.908 6.45162L9.2288 6.31874L8.90801 6.45162C8.99736 6.66734 9.14867 6.85171 9.34282 6.98143C9.53696 7.11115 9.76521 7.18039 9.9987 7.18039C10.3118 7.18039 10.6121 7.05601 10.8335 6.83462C11.0549 6.61322 11.1793 6.31294 11.1793 5.99984C11.1793 5.76635 11.11 5.5381 10.9803 5.34396C10.8506 5.14981 10.6662 4.9985 10.4505 4.90915C10.2348 4.81979 9.99739 4.79641 9.76838 4.84197C9.53938 4.88752 9.32902 4.99996 9.16392 5.16506C8.99882 5.33016 8.88638 5.54052 8.84083 5.76952C8.79527 5.99853 8.81865 6.2359 8.908 6.45162ZM4.72863 5.59565C4.80857 5.54224 4.90255 5.51373 4.9987 5.51373C5.12762 5.51373 5.25127 5.56494 5.34243 5.65611C5.43359 5.74727 5.48481 5.87091 5.48481 5.99984C5.48481 6.09598 5.4563 6.18997 5.40288 6.26991C5.34947 6.34985 5.27355 6.41215 5.18472 6.44895C5.0959 6.48574 4.99816 6.49537 4.90386 6.47661C4.80957 6.45785 4.72295 6.41155 4.65497 6.34357C4.58698 6.27559 4.54068 6.18897 4.52193 6.09467C4.50317 6.00038 4.5128 5.90264 4.54959 5.81381C4.58638 5.72499 4.64869 5.64907 4.72863 5.59565ZM14.7286 5.59565C14.8086 5.54224 14.9026 5.51373 14.9987 5.51373C15.1276 5.51373 15.2513 5.56494 15.3424 5.65611C15.4336 5.74727 15.4848 5.87091 15.4848 5.99984C15.4848 6.09598 15.4563 6.18997 15.4029 6.26991C15.3495 6.34985 15.2735 6.41215 15.1847 6.44895C15.0959 6.48574 14.9982 6.49537 14.9039 6.47661C14.8096 6.45785 14.7229 6.41155 14.655 6.34357C14.587 6.27559 14.5407 6.18897 14.5219 6.09467C14.5032 6.00038 14.5128 5.90264 14.5496 5.81381C14.5864 5.72499 14.6487 5.64907 14.7286 5.59565ZM3.33203 0.513726H16.6654C17.2363 0.513726 17.7839 0.740536 18.1876 1.14426C18.5913 1.54798 18.8181 2.09555 18.8181 2.6665V9.33317C18.8181 9.90412 18.5913 10.4517 18.1876 10.8554C17.7839 11.2591 17.2363 11.4859 16.6654 11.4859H3.33203C2.76108 11.4859 2.21351 11.2591 1.80979 10.8554C1.40606 10.4517 1.17925 9.90412 1.17925 9.33317V2.6665C1.17925 2.09555 1.40606 1.54798 1.80979 1.14426C2.21351 0.740536 2.76108 0.513726 3.33203 0.513726ZM17.5001 10.168C17.7215 9.94655 17.8459 9.64627 17.8459 9.33317V2.6665C17.8459 2.3534 17.7215 2.05312 17.5001 1.83173C17.2787 1.61033 16.9785 1.48595 16.6654 1.48595H3.33203C3.01893 1.48595 2.71865 1.61033 2.49725 1.83173C2.27586 2.05312 2.15148 2.3534 2.15148 2.6665V9.33317C2.15148 9.64627 2.27585 9.94655 2.49725 10.168C2.71865 10.3893 3.01893 10.5137 3.33203 10.5137H16.6654C16.9785 10.5137 17.2787 10.3893 17.5001 10.168ZM8.80268 4.20987C9.1567 3.97332 9.57292 3.84706 9.9987 3.84706C10.5696 3.84706 11.1172 4.07387 11.5209 4.47759C11.9247 4.88132 12.1515 5.42888 12.1515 5.99984C12.1515 6.42562 12.0252 6.84183 11.7887 7.19586C11.5521 7.54988 11.2159 7.82581 10.8225 7.98875C10.4292 8.15168 9.99631 8.19432 9.57871 8.11125C9.16111 8.02819 8.77752 7.82315 8.47645 7.52208C8.17538 7.22101 7.97035 6.83742 7.88728 6.41982C7.80422 6.00223 7.84685 5.56937 8.00979 5.176C8.17273 4.78264 8.44866 4.44642 8.80268 4.20987Z" fill="#031569" stroke="#008000" stroke-width="0.694444"/>
</svg>
