<svg width="23" height="22" viewBox="0 0 23 22" fill="none" xmlns="http://www.w3.org/2000/svg">
<path d="M8.05481 5.59545C9.12373 4.88122 10.3804 4.5 11.666 4.5C13.3899 4.5 15.0432 5.18482 16.2622 6.40381C17.4812 7.62279 18.166 9.27609 18.166 11C18.166 12.2856 17.7848 13.5423 17.0706 14.6112C16.3563 15.6801 15.3412 16.5132 14.1535 17.0052C12.9657 17.4972 11.6588 17.6259 10.3979 17.3751C9.13706 17.1243 7.97887 16.5052 7.06983 15.5962C6.16078 14.6872 5.54172 13.529 5.29092 12.2681C5.04011 11.0072 5.16883 9.70028 5.6608 8.51256C6.15277 7.32484 6.98589 6.30968 8.05481 5.59545ZM8.61038 15.5731C9.51485 16.1774 10.5782 16.5 11.666 16.5C13.1247 16.5 14.5237 15.9205 15.5551 14.8891C16.5866 13.8576 17.166 12.4587 17.166 11C17.166 9.9122 16.8435 8.84883 16.2391 7.94436C15.6348 7.03989 14.7758 6.33494 13.7708 5.91866C12.7658 5.50238 11.6599 5.39346 10.593 5.60568C9.52613 5.8179 8.54612 6.34172 7.77693 7.11091C7.00774 7.8801 6.48392 8.86011 6.2717 9.927C6.05948 10.9939 6.1684 12.0998 6.58468 13.1048C7.00096 14.1098 7.70591 14.9687 8.61038 15.5731ZM10.2771 8.92133C10.6882 8.64662 11.1716 8.5 11.666 8.5C12.3291 8.5 12.9649 8.76339 13.4338 9.23223C13.9026 9.70107 14.166 10.337 14.166 11C14.166 11.4945 14.0194 11.9778 13.7447 12.3889C13.47 12.8 13.0795 13.1205 12.6227 13.3097C12.1659 13.4989 11.6632 13.5484 11.1783 13.452C10.6933 13.3555 10.2479 13.1174 9.89825 12.7678C9.54862 12.4181 9.31052 11.9727 9.21406 11.4877C9.11759 11.0028 9.1671 10.5001 9.35632 10.0433C9.54554 9.58648 9.86597 9.19603 10.2771 8.92133ZM10.8327 12.2472C11.0793 12.412 11.3693 12.5 11.666 12.5C12.0638 12.5 12.4454 12.342 12.7267 12.0607C13.008 11.7794 13.166 11.3978 13.166 11C13.166 10.7033 13.078 10.4133 12.9132 10.1666C12.7484 9.91997 12.5141 9.72771 12.24 9.61418C11.966 9.50065 11.6644 9.47094 11.3734 9.52882C11.0824 9.5867 10.8151 9.72956 10.6054 9.93934C10.3956 10.1491 10.2527 10.4164 10.1948 10.7074C10.137 10.9983 10.1667 11.2999 10.2802 11.574C10.3937 11.8481 10.586 12.0824 10.8327 12.2472ZM5.83253 2.26957C7.55925 1.11581 9.58932 0.5 11.666 0.5C14.4508 0.5 17.1215 1.60625 19.0906 3.57538C21.0598 5.54451 22.166 8.21523 22.166 11C22.166 13.0767 21.5502 15.1068 20.3965 16.8335C19.2427 18.5602 17.6028 19.906 15.6842 20.7007C13.7656 21.4955 11.6544 21.7034 9.61757 21.2982C7.58077 20.8931 5.70985 19.8931 4.2414 18.4246C2.77295 16.9562 1.77292 15.0852 1.36778 13.0484C0.96263 11.0116 1.17057 8.90045 1.96529 6.98182C2.76001 5.0632 4.10582 3.42332 5.83253 2.26957ZM6.3881 18.899C7.95037 19.9428 9.7871 20.5 11.666 20.5C14.1856 20.5 16.6019 19.4991 18.3835 17.7175C20.1651 15.9359 21.166 13.5196 21.166 11C21.166 9.12108 20.6089 7.28435 19.565 5.72208C18.5211 4.15982 17.0374 2.94218 15.3015 2.22314C13.5656 1.50411 11.6555 1.31598 9.81266 1.68254C7.96984 2.0491 6.2771 2.95389 4.94851 4.28249C3.61991 5.61108 2.71512 7.30382 2.34856 9.14664C1.982 10.9895 2.17013 12.8996 2.88916 14.6355C3.6082 16.3714 4.82584 17.8551 6.3881 18.899Z" fill="black" stroke="#A3A3A3"/>
</svg>
